<?xml version="1.0" encoding="UTF-8"?>
<!DOCTYPE score-partwise PUBLIC "-//Recordare//DTD MusicXML 3.1 Partwise//EN" "http://www.musicxml.org/dtds/partwise.dtd">
<score-partwise version="3.1">
  <work>
    <work-title>Mazurca de Santos da Armita</work-title>
    </work>
  <identification>
    <encoding>
      <software>MuseScore 3.2.3</software>
      <encoding-date>2020-05-07</encoding-date>
      <supports element="accidental" type="yes"/>
      <supports element="beam" type="yes"/>
      <supports element="print" attribute="new-page" type="yes" value="yes"/>
      <supports element="print" attribute="new-system" type="yes" value="yes"/>
      <supports element="stem" type="yes"/>
      </encoding>
    </identification>
  <defaults>
    <scaling>
      <millimeters>7.05556</millimeters>
      <tenths>40</tenths>
      </scaling>
    <page-layout>
      <page-height>1683.78</page-height>
      <page-width>1190.55</page-width>
      <page-margins type="even">
        <left-margin>56.6929</left-margin>
        <right-margin>56.6929</right-margin>
        <top-margin>56.6929</top-margin>
        <bottom-margin>113.386</bottom-margin>
        </page-margins>
      <page-margins type="odd">
        <left-margin>56.6929</left-margin>
        <right-margin>56.6929</right-margin>
        <top-margin>56.6929</top-margin>
        <bottom-margin>113.386</bottom-margin>
        </page-margins>
      </page-layout>
    <word-font font-family="FreeSerif" font-size="10"/>
    <lyric-font font-family="FreeSerif" font-size="11"/>
    </defaults>
  <credit page="1">
    <credit-words default-x="595.275" default-y="1627.09" justify="center" valign="top" font-size="24">Mazurca de Santos da Armita</credit-words>
    </credit>
  <part-list>
    <score-part id="P1">
      <part-name>Gaita</part-name>
      <score-instrument id="P1-I1">
        <instrument-name>Gaita</instrument-name>
        </score-instrument>
      <midi-device id="P1-I1" port="1"></midi-device>
      <midi-instrument id="P1-I1">
        <midi-channel>1</midi-channel>
        <midi-program>110</midi-program>
        <volume>78.7402</volume>
        <pan>0</pan>
        </midi-instrument>
      </score-part>
    <score-part id="P2">
      <part-name>Bombo</part-name>
      <score-instrument id="P2-I36">
        <instrument-name>Acoustic Bass Drum</instrument-name>
        </score-instrument>
      <score-instrument id="P2-I43">
        <instrument-name>Closed Hi-Hat</instrument-name>
        </score-instrument>
      <score-instrument id="P2-I58">
        <instrument-name>Crash Cymbal 2</instrument-name>
        </score-instrument>
      <midi-device port="1"></midi-device>
      <midi-instrument id="P2-I36">
        <midi-channel>10</midi-channel>
        <midi-program>1</midi-program>
        <midi-unpitched>36</midi-unpitched>
        <volume>81.8898</volume>
        <pan>-90</pan>
        </midi-instrument>
      <midi-instrument id="P2-I43">
        <midi-channel>10</midi-channel>
        <midi-program>1</midi-program>
        <midi-unpitched>43</midi-unpitched>
        <volume>81.8898</volume>
        <pan>-90</pan>
        </midi-instrument>
      <midi-instrument id="P2-I58">
        <midi-channel>10</midi-channel>
        <midi-program>1</midi-program>
        <midi-unpitched>58</midi-unpitched>
        <volume>81.8898</volume>
        <pan>-90</pan>
        </midi-instrument>
      </score-part>
    <score-part id="P3">
      <part-name>Caixa</part-name>
      <score-instrument id="P3-I39">
        <instrument-name>Acoustic Snare</instrument-name>
        </score-instrument>
      <midi-device port="2"></midi-device>
      <midi-instrument id="P3-I39">
        <midi-channel>10</midi-channel>
        <midi-program>1</midi-program>
        <midi-unpitched>39</midi-unpitched>
        <volume>58.2677</volume>
        <pan>90</pan>
        </midi-instrument>
      </score-part>
    </part-list>
  <part id="P1">
    <measure number="1" width="206.91">
      <print>
        <system-layout>
          <system-margins>
            <left-margin>78.80</left-margin>
            <right-margin>0.00</right-margin>
            </system-margins>
          <top-system-distance>170.00</top-system-distance>
          </system-layout>
        </print>
      <attributes>
        <divisions>2</divisions>
        <key>
          <fifths>0</fifths>
          </key>
        <time>
          <beats>3</beats>
          <beat-type>4</beat-type>
          </time>
        <clef>
          <sign>G</sign>
          <line>2</line>
          <clef-octave-change>1</clef-octave-change>
          </clef>
        </attributes>
      <direction placement="above">
        <direction-type>
          <metronome parentheses="no" default-x="-36.90" relative-y="20.00">
            <beat-unit>quarter</beat-unit>
            <per-minute>160</per-minute>
            </metronome>
          </direction-type>
        <sound tempo="160"/>
        </direction>
      <note default-x="81.81" default-y="-40.00">
        <pitch>
          <step>E</step>
          <octave>5</octave>
          </pitch>
        <duration>2</duration>
        <voice>1</voice>
        <type>quarter</type>
        <stem>up</stem>
        </note>
      <note default-x="116.71" default-y="-50.00">
        <pitch>
          <step>C</step>
          <octave>5</octave>
          </pitch>
        <duration>1</duration>
        <voice>1</voice>
        <type>eighth</type>
        <stem>up</stem>
        <beam number="1">begin</beam>
        </note>
      <note default-x="138.52" default-y="-40.00">
        <pitch>
          <step>E</step>
          <octave>5</octave>
          </pitch>
        <duration>1</duration>
        <voice>1</voice>
        <type>eighth</type>
        <stem>up</stem>
        <beam number="1">end</beam>
        </note>
      <note default-x="160.33" default-y="-50.00">
        <pitch>
          <step>C</step>
          <octave>5</octave>
          </pitch>
        <duration>1</duration>
        <voice>1</voice>
        <type>eighth</type>
        <stem>up</stem>
        <beam number="1">begin</beam>
        </note>
      <note default-x="182.15" default-y="-40.00">
        <pitch>
          <step>E</step>
          <octave>5</octave>
          </pitch>
        <duration>1</duration>
        <voice>1</voice>
        <type>eighth</type>
        <stem>up</stem>
        <beam number="1">end</beam>
        </note>
      </measure>
    <measure number="2" width="136.80">
      <note default-x="10.94" default-y="-35.00">
        <pitch>
          <step>F</step>
          <octave>5</octave>
          </pitch>
        <duration>1</duration>
        <voice>1</voice>
        <type>eighth</type>
        <stem>up</stem>
        <beam number="1">begin</beam>
        </note>
      <note default-x="31.16" default-y="-40.00">
        <pitch>
          <step>E</step>
          <octave>5</octave>
          </pitch>
        <duration>1</duration>
        <voice>1</voice>
        <type>eighth</type>
        <stem>up</stem>
        <beam number="1">end</beam>
        </note>
      <note default-x="51.38" default-y="-50.00">
        <pitch>
          <step>C</step>
          <octave>5</octave>
          </pitch>
        <duration>1</duration>
        <voice>1</voice>
        <type>eighth</type>
        <stem>up</stem>
        <beam number="1">begin</beam>
        </note>
      <note default-x="71.60" default-y="-40.00">
        <pitch>
          <step>E</step>
          <octave>5</octave>
          </pitch>
        <duration>1</duration>
        <voice>1</voice>
        <type>eighth</type>
        <stem>up</stem>
        <beam number="1">end</beam>
        </note>
      <note default-x="91.82" default-y="-50.00">
        <pitch>
          <step>C</step>
          <octave>5</octave>
          </pitch>
        <duration>1</duration>
        <voice>1</voice>
        <type>eighth</type>
        <stem>up</stem>
        <beam number="1">begin</beam>
        </note>
      <note default-x="112.04" default-y="-40.00">
        <pitch>
          <step>E</step>
          <octave>5</octave>
          </pitch>
        <duration>1</duration>
        <voice>1</voice>
        <type>eighth</type>
        <stem>up</stem>
        <beam number="1">end</beam>
        </note>
      </measure>
    <measure number="3" width="136.80">
      <note default-x="10.94" default-y="-35.00">
        <pitch>
          <step>F</step>
          <octave>5</octave>
          </pitch>
        <duration>1</duration>
        <voice>1</voice>
        <type>eighth</type>
        <stem>up</stem>
        <beam number="1">begin</beam>
        </note>
      <note default-x="31.16" default-y="-40.00">
        <pitch>
          <step>E</step>
          <octave>5</octave>
          </pitch>
        <duration>1</duration>
        <voice>1</voice>
        <type>eighth</type>
        <stem>up</stem>
        <beam number="1">end</beam>
        </note>
      <note default-x="51.38" default-y="-50.00">
        <pitch>
          <step>C</step>
          <octave>5</octave>
          </pitch>
        <duration>1</duration>
        <voice>1</voice>
        <type>eighth</type>
        <stem>up</stem>
        <beam number="1">begin</beam>
        </note>
      <note default-x="71.60" default-y="-40.00">
        <pitch>
          <step>E</step>
          <octave>5</octave>
          </pitch>
        <duration>1</duration>
        <voice>1</voice>
        <type>eighth</type>
        <stem>up</stem>
        <beam number="1">end</beam>
        </note>
      <note default-x="91.82" default-y="-50.00">
        <pitch>
          <step>C</step>
          <octave>5</octave>
          </pitch>
        <duration>1</duration>
        <voice>1</voice>
        <type>eighth</type>
        <stem>up</stem>
        <beam number="1">begin</beam>
        </note>
      <note default-x="112.04" default-y="-40.00">
        <pitch>
          <step>E</step>
          <octave>5</octave>
          </pitch>
        <duration>1</duration>
        <voice>1</voice>
        <type>eighth</type>
        <stem>up</stem>
        <beam number="1">end</beam>
        </note>
      </measure>
    <measure number="4" width="198.11">
      <attributes>
        <time>
          <beats>5</beats>
          <beat-type>4</beat-type>
          </time>
        </attributes>
      <note default-x="30.96" default-y="-30.00">
        <pitch>
          <step>G</step>
          <octave>5</octave>
          </pitch>
        <duration>2</duration>
        <voice>1</voice>
        <type>quarter</type>
        <stem>up</stem>
        </note>
      <note default-x="61.48" default-y="-35.00">
        <pitch>
          <step>F</step>
          <octave>5</octave>
          </pitch>
        <duration>1</duration>
        <voice>1</voice>
        <type>eighth</type>
        <stem>up</stem>
        <beam number="1">begin</beam>
        </note>
      <note default-x="80.55" default-y="-40.00">
        <pitch>
          <step>E</step>
          <octave>5</octave>
          </pitch>
        <duration>1</duration>
        <voice>1</voice>
        <type>eighth</type>
        <stem>up</stem>
        <beam number="1">end</beam>
        </note>
      <note default-x="99.62" default-y="-35.00">
        <pitch>
          <step>F</step>
          <octave>5</octave>
          </pitch>
        <duration>2</duration>
        <voice>1</voice>
        <type>quarter</type>
        <stem>up</stem>
        </note>
      <note default-x="135.48" default-y="-45.00">
        <pitch>
          <step>D</step>
          <octave>5</octave>
          </pitch>
        <duration>2</duration>
        <voice>1</voice>
        <type>quarter</type>
        <stem>up</stem>
        </note>
      <note default-x="166.00" default-y="-55.00">
        <pitch>
          <step>B</step>
          <octave>4</octave>
          </pitch>
        <duration>2</duration>
        <voice>1</voice>
        <type>quarter</type>
        <stem>up</stem>
        </note>
      </measure>
    <measure number="5" width="167.78">
      <attributes>
        <time>
          <beats>3</beats>
          <beat-type>4</beat-type>
          </time>
        </attributes>
      <note default-x="31.90" default-y="-45.00">
        <pitch>
          <step>D</step>
          <octave>5</octave>
          </pitch>
        <duration>2</duration>
        <voice>1</voice>
        <type>quarter</type>
        <stem>up</stem>
        </note>
      <note default-x="70.27" default-y="-55.00">
        <pitch>
          <step>B</step>
          <octave>4</octave>
          </pitch>
        <duration>1</duration>
        <voice>1</voice>
        <type>eighth</type>
        <stem>up</stem>
        <beam number="1">begin</beam>
        </note>
      <note default-x="94.25" default-y="-45.00">
        <pitch>
          <step>D</step>
          <octave>5</octave>
          </pitch>
        <duration>1</duration>
        <voice>1</voice>
        <type>eighth</type>
        <stem>up</stem>
        <beam number="1">end</beam>
        </note>
      <note default-x="118.23" default-y="-55.00">
        <pitch>
          <step>B</step>
          <octave>4</octave>
          </pitch>
        <duration>1</duration>
        <voice>1</voice>
        <type>eighth</type>
        <stem>up</stem>
        <beam number="1">begin</beam>
        </note>
      <note default-x="142.20" default-y="-45.00">
        <pitch>
          <step>D</step>
          <octave>5</octave>
          </pitch>
        <duration>1</duration>
        <voice>1</voice>
        <type>eighth</type>
        <stem>up</stem>
        <beam number="1">end</beam>
        </note>
      </measure>
    <measure number="6" width="151.95">
      <note default-x="10.94" default-y="-40.00">
        <pitch>
          <step>E</step>
          <octave>5</octave>
          </pitch>
        <duration>1</duration>
        <voice>1</voice>
        <type>eighth</type>
        <stem>up</stem>
        <beam number="1">begin</beam>
        </note>
      <note default-x="34.17" default-y="-45.00">
        <pitch>
          <step>D</step>
          <octave>5</octave>
          </pitch>
        <duration>1</duration>
        <voice>1</voice>
        <type>eighth</type>
        <stem>up</stem>
        <beam number="1">end</beam>
        </note>
      <note default-x="57.41" default-y="-55.00">
        <pitch>
          <step>B</step>
          <octave>4</octave>
          </pitch>
        <duration>1</duration>
        <voice>1</voice>
        <type>eighth</type>
        <stem>up</stem>
        <beam number="1">begin</beam>
        </note>
      <note default-x="80.64" default-y="-45.00">
        <pitch>
          <step>D</step>
          <octave>5</octave>
          </pitch>
        <duration>1</duration>
        <voice>1</voice>
        <type>eighth</type>
        <stem>up</stem>
        <beam number="1">end</beam>
        </note>
      <note default-x="103.88" default-y="-55.00">
        <pitch>
          <step>B</step>
          <octave>4</octave>
          </pitch>
        <duration>1</duration>
        <voice>1</voice>
        <type>eighth</type>
        <stem>up</stem>
        <beam number="1">begin</beam>
        </note>
      <note default-x="127.12" default-y="-45.00">
        <pitch>
          <step>D</step>
          <octave>5</octave>
          </pitch>
        <duration>1</duration>
        <voice>1</voice>
        <type>eighth</type>
        <stem>up</stem>
        <beam number="1">end</beam>
        </note>
      </measure>
    <measure number="7" width="199.46">
      <print new-system="yes">
        <system-layout>
          <system-margins>
            <left-margin>0.00</left-margin>
            <right-margin>0.00</right-margin>
            </system-margins>
          <system-distance>150.00</system-distance>
          </system-layout>
        </print>
      <note default-x="59.77" default-y="-40.00">
        <pitch>
          <step>E</step>
          <octave>5</octave>
          </pitch>
        <duration>1</duration>
        <voice>1</voice>
        <type>eighth</type>
        <stem>up</stem>
        <beam number="1">begin</beam>
        </note>
      <note default-x="82.76" default-y="-45.00">
        <pitch>
          <step>D</step>
          <octave>5</octave>
          </pitch>
        <duration>1</duration>
        <voice>1</voice>
        <type>eighth</type>
        <stem>up</stem>
        <beam number="1">end</beam>
        </note>
      <note default-x="105.74" default-y="-55.00">
        <pitch>
          <step>B</step>
          <octave>4</octave>
          </pitch>
        <duration>1</duration>
        <voice>1</voice>
        <type>eighth</type>
        <stem>up</stem>
        <beam number="1">begin</beam>
        </note>
      <note default-x="128.73" default-y="-45.00">
        <pitch>
          <step>D</step>
          <octave>5</octave>
          </pitch>
        <duration>1</duration>
        <voice>1</voice>
        <type>eighth</type>
        <stem>up</stem>
        <beam number="1">end</beam>
        </note>
      <note default-x="151.71" default-y="-55.00">
        <pitch>
          <step>B</step>
          <octave>4</octave>
          </pitch>
        <duration>1</duration>
        <voice>1</voice>
        <type>eighth</type>
        <stem>up</stem>
        <beam number="1">begin</beam>
        </note>
      <note default-x="174.69" default-y="-45.00">
        <pitch>
          <step>D</step>
          <octave>5</octave>
          </pitch>
        <duration>1</duration>
        <voice>1</voice>
        <type>eighth</type>
        <stem>up</stem>
        <beam number="1">end</beam>
        </note>
      </measure>
    <measure number="8" width="95.10">
      <attributes>
        <time>
          <beats>2</beats>
          <beat-type>4</beat-type>
          </time>
        </attributes>
      <note default-x="30.96" default-y="-30.00">
        <pitch>
          <step>G</step>
          <octave>5</octave>
          </pitch>
        <duration>2</duration>
        <voice>1</voice>
        <type>quarter</type>
        <stem>up</stem>
        </note>
      <note default-x="54.67" default-y="-30.00">
        <pitch>
          <step>G</step>
          <octave>5</octave>
          </pitch>
        <duration>1</duration>
        <voice>1</voice>
        <type>eighth</type>
        <stem>up</stem>
        <beam number="1">begin</beam>
        </note>
      <note default-x="70.33" default-y="-25.00">
        <pitch>
          <step>A</step>
          <octave>5</octave>
          </pitch>
        <duration>1</duration>
        <voice>1</voice>
        <type>eighth</type>
        <stem>up</stem>
        <beam number="1">end</beam>
        </note>
      </measure>
    <measure number="9" width="89.77">
      <note default-x="10.00" default-y="-30.00">
        <pitch>
          <step>G</step>
          <octave>5</octave>
          </pitch>
        <duration>1</duration>
        <voice>1</voice>
        <type>eighth</type>
        <stem>up</stem>
        <beam number="1">begin</beam>
        </note>
      <note default-x="28.87" default-y="-35.00">
        <pitch>
          <step>F</step>
          <octave>5</octave>
          </pitch>
        <duration>1</duration>
        <voice>1</voice>
        <type>eighth</type>
        <stem>up</stem>
        <beam number="1">end</beam>
        </note>
      <note default-x="47.74" default-y="-40.00">
        <pitch>
          <step>E</step>
          <octave>5</octave>
          </pitch>
        <duration>1</duration>
        <voice>1</voice>
        <type>eighth</type>
        <stem>up</stem>
        <beam number="1">begin</beam>
        </note>
      <note default-x="66.60" default-y="-45.00">
        <pitch>
          <step>D</step>
          <octave>5</octave>
          </pitch>
        <duration>1</duration>
        <voice>1</voice>
        <type>eighth</type>
        <stem>up</stem>
        <beam number="1">end</beam>
        </note>
      </measure>
    <measure number="10" width="167.26">
      <barline location="left">
        <bar-style>heavy-light</bar-style>
        <repeat direction="forward"/>
        </barline>
      <attributes>
        <time>
          <beats>3</beats>
          <beat-type>4</beat-type>
          </time>
        </attributes>
      <note default-x="54.33" default-y="-50.00">
        <pitch>
          <step>C</step>
          <octave>5</octave>
          </pitch>
        <duration>2</duration>
        <voice>1</voice>
        <type>quarter</type>
        <stem>up</stem>
        </note>
      <note default-x="84.99" default-y="-50.00">
        <pitch>
          <step>C</step>
          <octave>5</octave>
          </pitch>
        <duration>1</duration>
        <voice>1</voice>
        <type>eighth</type>
        <stem>up</stem>
        <beam number="1">begin</beam>
        </note>
      <note default-x="104.16" default-y="-40.00">
        <pitch>
          <step>E</step>
          <octave>5</octave>
          </pitch>
        <duration>1</duration>
        <voice>1</voice>
        <type>eighth</type>
        <stem>up</stem>
        <beam number="1">end</beam>
        </note>
      <note default-x="123.33" default-y="-50.00">
        <pitch>
          <step>C</step>
          <octave>5</octave>
          </pitch>
        <duration>1</duration>
        <voice>1</voice>
        <type>eighth</type>
        <stem>up</stem>
        <beam number="1">begin</beam>
        </note>
      <note default-x="142.49" default-y="-40.00">
        <pitch>
          <step>E</step>
          <octave>5</octave>
          </pitch>
        <duration>1</duration>
        <voice>1</voice>
        <type>eighth</type>
        <stem>up</stem>
        <beam number="1">end</beam>
        </note>
      </measure>
    <measure number="11" width="95.46">
      <attributes>
        <time>
          <beats>2</beats>
          <beat-type>4</beat-type>
          </time>
        </attributes>
      <note default-x="31.32" default-y="-30.00">
        <pitch>
          <step>G</step>
          <octave>5</octave>
          </pitch>
        <duration>2</duration>
        <voice>1</voice>
        <type>quarter</type>
        <stem>up</stem>
        </note>
      <note default-x="55.03" default-y="-30.00">
        <pitch>
          <step>G</step>
          <octave>5</octave>
          </pitch>
        <duration>1</duration>
        <voice>1</voice>
        <type>eighth</type>
        <stem>up</stem>
        <beam number="1">begin</beam>
        </note>
      <note default-x="70.70" default-y="-25.00">
        <pitch>
          <step>A</step>
          <octave>5</octave>
          </pitch>
        <duration>1</duration>
        <voice>1</voice>
        <type>eighth</type>
        <stem>up</stem>
        <beam number="1">end</beam>
        </note>
      </measure>
    <measure number="12" width="91.37">
      <note default-x="10.00" default-y="-30.00">
        <pitch>
          <step>G</step>
          <octave>5</octave>
          </pitch>
        <duration>1</duration>
        <voice>1</voice>
        <type>eighth</type>
        <stem>up</stem>
        <beam number="1">begin</beam>
        </note>
      <note default-x="28.87" default-y="-35.00">
        <pitch>
          <step>F</step>
          <octave>5</octave>
          </pitch>
        <duration>1</duration>
        <voice>1</voice>
        <type>eighth</type>
        <stem>up</stem>
        <beam number="1">end</beam>
        </note>
      <note default-x="47.74" default-y="-40.00">
        <pitch>
          <step>E</step>
          <octave>5</octave>
          </pitch>
        <duration>1</duration>
        <voice>1</voice>
        <type>eighth</type>
        <stem>up</stem>
        <beam number="1">begin</beam>
        </note>
      <note default-x="66.60" default-y="-45.00">
        <pitch>
          <step>D</step>
          <octave>5</octave>
          </pitch>
        <duration>1</duration>
        <voice>1</voice>
        <type>eighth</type>
        <stem>up</stem>
        <beam number="1">end</beam>
        </note>
      </measure>
    <measure number="13" width="135.15">
      <attributes>
        <time>
          <beats>3</beats>
          <beat-type>4</beat-type>
          </time>
        </attributes>
      <note default-x="30.96" default-y="-40.00">
        <pitch>
          <step>E</step>
          <octave>5</octave>
          </pitch>
        <duration>2</duration>
        <voice>1</voice>
        <type>quarter</type>
        <stem>up</stem>
        </note>
      <note default-x="58.59" default-y="-50.00">
        <pitch>
          <step>C</step>
          <octave>5</octave>
          </pitch>
        <duration>1</duration>
        <voice>1</voice>
        <type>eighth</type>
        <stem>up</stem>
        <beam number="1">begin</beam>
        </note>
      <note default-x="75.85" default-y="-40.00">
        <pitch>
          <step>E</step>
          <octave>5</octave>
          </pitch>
        <duration>1</duration>
        <voice>1</voice>
        <type>eighth</type>
        <stem>up</stem>
        <beam number="1">end</beam>
        </note>
      <note default-x="93.12" default-y="-50.00">
        <pitch>
          <step>C</step>
          <octave>5</octave>
          </pitch>
        <duration>1</duration>
        <voice>1</voice>
        <type>eighth</type>
        <stem>up</stem>
        <beam number="1">begin</beam>
        </note>
      <note default-x="110.39" default-y="-40.00">
        <pitch>
          <step>E</step>
          <octave>5</octave>
          </pitch>
        <duration>1</duration>
        <voice>1</voice>
        <type>eighth</type>
        <stem>up</stem>
        <beam number="1">end</beam>
        </note>
      </measure>
    <measure number="14" width="95.46">
      <attributes>
        <time>
          <beats>2</beats>
          <beat-type>4</beat-type>
          </time>
        </attributes>
      <note default-x="31.32" default-y="-30.00">
        <pitch>
          <step>G</step>
          <octave>5</octave>
          </pitch>
        <duration>2</duration>
        <voice>1</voice>
        <type>quarter</type>
        <stem>up</stem>
        </note>
      <note default-x="55.03" default-y="-30.00">
        <pitch>
          <step>G</step>
          <octave>5</octave>
          </pitch>
        <duration>1</duration>
        <voice>1</voice>
        <type>eighth</type>
        <stem>up</stem>
        <beam number="1">begin</beam>
        </note>
      <note default-x="70.70" default-y="-25.00">
        <pitch>
          <step>A</step>
          <octave>5</octave>
          </pitch>
        <duration>1</duration>
        <voice>1</voice>
        <type>eighth</type>
        <stem>up</stem>
        <beam number="1">end</beam>
        </note>
      </measure>
    <measure number="15" width="108.14">
      <note default-x="10.00" default-y="-30.00">
        <pitch>
          <step>G</step>
          <octave>5</octave>
          </pitch>
        <duration>1</duration>
        <voice>1</voice>
        <type>eighth</type>
        <stem>up</stem>
        <beam number="1">begin</beam>
        </note>
      <note default-x="28.87" default-y="-35.00">
        <pitch>
          <step>F</step>
          <octave>5</octave>
          </pitch>
        <duration>1</duration>
        <voice>1</voice>
        <type>eighth</type>
        <stem>up</stem>
        <beam number="1">end</beam>
        </note>
      <note default-x="47.74" default-y="-40.00">
        <pitch>
          <step>E</step>
          <octave>5</octave>
          </pitch>
        <duration>1</duration>
        <voice>1</voice>
        <type>eighth</type>
        <stem>up</stem>
        <beam number="1">begin</beam>
        </note>
      <note default-x="66.60" default-y="-45.00">
        <pitch>
          <step>D</step>
          <octave>5</octave>
          </pitch>
        <duration>1</duration>
        <voice>1</voice>
        <type>eighth</type>
        <stem>up</stem>
        <beam number="1">end</beam>
        </note>
      <barline location="right">
        <bar-style>light-heavy</bar-style>
        <repeat direction="backward"/>
        </barline>
      </measure>
    <measure number="16" width="250.50">
      <print new-system="yes">
        <system-layout>
          <system-margins>
            <left-margin>0.00</left-margin>
            <right-margin>826.67</right-margin>
            </system-margins>
          <system-distance>150.00</system-distance>
          </system-layout>
        </print>
      <note default-x="63.57" default-y="-50.00">
        <pitch>
          <step>C</step>
          <octave>5</octave>
          </pitch>
        <duration>2</duration>
        <voice>1</voice>
        <type>quarter</type>
        <stem>up</stem>
        </note>
      <note default-x="151.74" default-y="-50.00">
        <pitch>
          <step>C</step>
          <octave>5</octave>
          </pitch>
        <duration>2</duration>
        <voice>1</voice>
        <type>quarter</type>
        <stem>up</stem>
        </note>
      <barline location="right">
        <bar-style>light-heavy</bar-style>
        </barline>
      </measure>
    </part>
  <part id="P2">
    <measure number="1" width="206.91">
      <print>
        <staff-layout number="1">
          <staff-distance>65.00</staff-distance>
          </staff-layout>
        </print>
      <attributes>
        <divisions>2</divisions>
        <key>
          <fifths>0</fifths>
          </key>
        <time>
          <beats>3</beats>
          <beat-type>4</beat-type>
          </time>
        <clef>
          <sign>percussion</sign>
          <line>2</line>
          </clef>
        </attributes>
      <note default-x="81.81" default-y="-140.00">
        <unpitched>
          <display-step>F</display-step>
          <display-octave>4</display-octave>
          </unpitched>
        <duration>2</duration>
        <instrument id="P2-I36"/>
        <voice>1</voice>
        <type>quarter</type>
        <stem>up</stem>
        </note>
      <note default-x="116.71" default-y="-100.00">
        <unpitched>
          <display-step>G</display-step>
          <display-octave>5</display-octave>
          </unpitched>
        <duration>2</duration>
        <instrument id="P2-I43"/>
        <voice>1</voice>
        <type>quarter</type>
        <stem>down</stem>
        <notehead>x</notehead>
        </note>
      <note default-x="160.33" default-y="-100.00">
        <unpitched>
          <display-step>G</display-step>
          <display-octave>5</display-octave>
          </unpitched>
        <duration>2</duration>
        <instrument id="P2-I43"/>
        <voice>1</voice>
        <type>quarter</type>
        <stem>down</stem>
        <notehead>x</notehead>
        </note>
      </measure>
    <measure number="2" width="136.80">
      <note default-x="10.94" default-y="-140.00">
        <unpitched>
          <display-step>F</display-step>
          <display-octave>4</display-octave>
          </unpitched>
        <duration>2</duration>
        <instrument id="P2-I36"/>
        <voice>1</voice>
        <type>quarter</type>
        <stem>up</stem>
        </note>
      <note default-x="51.38" default-y="-100.00">
        <unpitched>
          <display-step>G</display-step>
          <display-octave>5</display-octave>
          </unpitched>
        <duration>2</duration>
        <instrument id="P2-I43"/>
        <voice>1</voice>
        <type>quarter</type>
        <stem>down</stem>
        <notehead>x</notehead>
        </note>
      <note default-x="91.82" default-y="-100.00">
        <unpitched>
          <display-step>G</display-step>
          <display-octave>5</display-octave>
          </unpitched>
        <duration>2</duration>
        <instrument id="P2-I43"/>
        <voice>1</voice>
        <type>quarter</type>
        <stem>down</stem>
        <notehead>x</notehead>
        </note>
      </measure>
    <measure number="3" width="136.80">
      <note default-x="10.94" default-y="-140.00">
        <unpitched>
          <display-step>F</display-step>
          <display-octave>4</display-octave>
          </unpitched>
        <duration>2</duration>
        <instrument id="P2-I36"/>
        <voice>1</voice>
        <type>quarter</type>
        <stem>up</stem>
        </note>
      <note default-x="51.38" default-y="-100.00">
        <unpitched>
          <display-step>G</display-step>
          <display-octave>5</display-octave>
          </unpitched>
        <duration>2</duration>
        <instrument id="P2-I43"/>
        <voice>1</voice>
        <type>quarter</type>
        <stem>down</stem>
        <notehead>x</notehead>
        </note>
      <note default-x="91.82" default-y="-100.00">
        <unpitched>
          <display-step>G</display-step>
          <display-octave>5</display-octave>
          </unpitched>
        <duration>2</duration>
        <instrument id="P2-I43"/>
        <voice>1</voice>
        <type>quarter</type>
        <stem>down</stem>
        <notehead>x</notehead>
        </note>
      </measure>
    <measure number="4" width="198.11">
      <attributes>
        <time>
          <beats>5</beats>
          <beat-type>4</beat-type>
          </time>
        </attributes>
      <note default-x="30.96" default-y="-140.00">
        <unpitched>
          <display-step>F</display-step>
          <display-octave>4</display-octave>
          </unpitched>
        <duration>2</duration>
        <instrument id="P2-I36"/>
        <voice>1</voice>
        <type>quarter</type>
        <stem>up</stem>
        </note>
      <note default-x="61.48" default-y="-100.00">
        <unpitched>
          <display-step>G</display-step>
          <display-octave>5</display-octave>
          </unpitched>
        <duration>2</duration>
        <instrument id="P2-I43"/>
        <voice>1</voice>
        <type>quarter</type>
        <stem>down</stem>
        <notehead>x</notehead>
        </note>
      <note default-x="99.62" default-y="-140.00">
        <unpitched>
          <display-step>F</display-step>
          <display-octave>4</display-octave>
          </unpitched>
        <duration>2</duration>
        <instrument id="P2-I36"/>
        <voice>1</voice>
        <type>quarter</type>
        <stem>up</stem>
        </note>
      <note default-x="135.48" default-y="-140.00">
        <unpitched>
          <display-step>F</display-step>
          <display-octave>4</display-octave>
          </unpitched>
        <duration>2</duration>
        <instrument id="P2-I36"/>
        <voice>1</voice>
        <type>quarter</type>
        <stem>up</stem>
        </note>
      <note default-x="166.00" default-y="-100.00">
        <unpitched>
          <display-step>G</display-step>
          <display-octave>5</display-octave>
          </unpitched>
        <duration>2</duration>
        <instrument id="P2-I43"/>
        <voice>1</voice>
        <type>quarter</type>
        <stem>down</stem>
        <notehead>x</notehead>
        </note>
      </measure>
    <measure number="5" width="167.78">
      <attributes>
        <time>
          <beats>3</beats>
          <beat-type>4</beat-type>
          </time>
        </attributes>
      <note default-x="31.90" default-y="-140.00">
        <unpitched>
          <display-step>F</display-step>
          <display-octave>4</display-octave>
          </unpitched>
        <duration>2</duration>
        <instrument id="P2-I36"/>
        <voice>1</voice>
        <type>quarter</type>
        <stem>up</stem>
        </note>
      <note default-x="70.27" default-y="-100.00">
        <unpitched>
          <display-step>G</display-step>
          <display-octave>5</display-octave>
          </unpitched>
        <duration>2</duration>
        <instrument id="P2-I43"/>
        <voice>1</voice>
        <type>quarter</type>
        <stem>down</stem>
        <notehead>x</notehead>
        </note>
      <note default-x="118.23" default-y="-100.00">
        <unpitched>
          <display-step>G</display-step>
          <display-octave>5</display-octave>
          </unpitched>
        <duration>2</duration>
        <instrument id="P2-I43"/>
        <voice>1</voice>
        <type>quarter</type>
        <stem>down</stem>
        <notehead>x</notehead>
        </note>
      </measure>
    <measure number="6" width="151.95">
      <note default-x="10.94" default-y="-140.00">
        <unpitched>
          <display-step>F</display-step>
          <display-octave>4</display-octave>
          </unpitched>
        <duration>2</duration>
        <instrument id="P2-I36"/>
        <voice>1</voice>
        <type>quarter</type>
        <stem>up</stem>
        </note>
      <note default-x="57.41" default-y="-100.00">
        <unpitched>
          <display-step>G</display-step>
          <display-octave>5</display-octave>
          </unpitched>
        <duration>2</duration>
        <instrument id="P2-I43"/>
        <voice>1</voice>
        <type>quarter</type>
        <stem>down</stem>
        <notehead>x</notehead>
        </note>
      <note default-x="103.88" default-y="-100.00">
        <unpitched>
          <display-step>G</display-step>
          <display-octave>5</display-octave>
          </unpitched>
        <duration>2</duration>
        <instrument id="P2-I43"/>
        <voice>1</voice>
        <type>quarter</type>
        <stem>down</stem>
        <notehead>x</notehead>
        </note>
      </measure>
    <measure number="7" width="199.46">
      <print new-system="yes">
        <staff-layout number="1">
          <staff-distance>65.00</staff-distance>
          </staff-layout>
        </print>
      <note default-x="59.77" default-y="-140.00">
        <unpitched>
          <display-step>F</display-step>
          <display-octave>4</display-octave>
          </unpitched>
        <duration>2</duration>
        <instrument id="P2-I36"/>
        <voice>1</voice>
        <type>quarter</type>
        <stem>up</stem>
        </note>
      <note default-x="105.74" default-y="-100.00">
        <unpitched>
          <display-step>G</display-step>
          <display-octave>5</display-octave>
          </unpitched>
        <duration>2</duration>
        <instrument id="P2-I43"/>
        <voice>1</voice>
        <type>quarter</type>
        <stem>down</stem>
        <notehead>x</notehead>
        </note>
      <note default-x="151.71" default-y="-100.00">
        <unpitched>
          <display-step>G</display-step>
          <display-octave>5</display-octave>
          </unpitched>
        <duration>2</duration>
        <instrument id="P2-I43"/>
        <voice>1</voice>
        <type>quarter</type>
        <stem>down</stem>
        <notehead>x</notehead>
        </note>
      </measure>
    <measure number="8" width="95.10">
      <attributes>
        <time>
          <beats>2</beats>
          <beat-type>4</beat-type>
          </time>
        </attributes>
      <note default-x="30.96" default-y="-140.00">
        <unpitched>
          <display-step>F</display-step>
          <display-octave>4</display-octave>
          </unpitched>
        <duration>2</duration>
        <instrument id="P2-I36"/>
        <voice>1</voice>
        <type>quarter</type>
        <stem>up</stem>
        </note>
      <note default-x="54.67" default-y="-100.00">
        <unpitched>
          <display-step>G</display-step>
          <display-octave>5</display-octave>
          </unpitched>
        <duration>2</duration>
        <instrument id="P2-I43"/>
        <voice>1</voice>
        <type>quarter</type>
        <stem>down</stem>
        <notehead>x</notehead>
        </note>
      </measure>
    <measure number="9" width="89.77">
      <note default-x="10.00" default-y="-140.00">
        <unpitched>
          <display-step>F</display-step>
          <display-octave>4</display-octave>
          </unpitched>
        <duration>1</duration>
        <instrument id="P2-I36"/>
        <voice>1</voice>
        <type>eighth</type>
        <stem>up</stem>
        <beam number="1">begin</beam>
        </note>
      <note default-x="28.87" default-y="-100.00">
        <unpitched>
          <display-step>G</display-step>
          <display-octave>5</display-octave>
          </unpitched>
        <duration>1</duration>
        <instrument id="P2-I43"/>
        <voice>1</voice>
        <type>eighth</type>
        <stem>up</stem>
        <notehead>x</notehead>
        <beam number="1">end</beam>
        </note>
      <note default-x="47.74" default-y="-140.00">
        <unpitched>
          <display-step>F</display-step>
          <display-octave>4</display-octave>
          </unpitched>
        <duration>1</duration>
        <instrument id="P2-I36"/>
        <voice>1</voice>
        <type>eighth</type>
        <stem>up</stem>
        <beam number="1">begin</beam>
        </note>
      <note default-x="66.60" default-y="-100.00">
        <unpitched>
          <display-step>G</display-step>
          <display-octave>5</display-octave>
          </unpitched>
        <duration>1</duration>
        <instrument id="P2-I43"/>
        <voice>1</voice>
        <type>eighth</type>
        <stem>up</stem>
        <notehead>x</notehead>
        <beam number="1">end</beam>
        </note>
      </measure>
    <measure number="10" width="167.26">
      <barline location="left">
        <bar-style>heavy-light</bar-style>
        <repeat direction="forward"/>
        </barline>
      <attributes>
        <time>
          <beats>3</beats>
          <beat-type>4</beat-type>
          </time>
        </attributes>
      <note default-x="54.33" default-y="-140.00">
        <unpitched>
          <display-step>F</display-step>
          <display-octave>4</display-octave>
          </unpitched>
        <duration>2</duration>
        <instrument id="P2-I36"/>
        <voice>1</voice>
        <type>quarter</type>
        <stem>up</stem>
        </note>
      <note default-x="84.99" default-y="-100.00">
        <unpitched>
          <display-step>G</display-step>
          <display-octave>5</display-octave>
          </unpitched>
        <duration>2</duration>
        <instrument id="P2-I43"/>
        <voice>1</voice>
        <type>quarter</type>
        <stem>down</stem>
        <notehead>x</notehead>
        </note>
      <note default-x="123.33" default-y="-100.00">
        <unpitched>
          <display-step>G</display-step>
          <display-octave>5</display-octave>
          </unpitched>
        <duration>2</duration>
        <instrument id="P2-I43"/>
        <voice>1</voice>
        <type>quarter</type>
        <stem>down</stem>
        <notehead>x</notehead>
        </note>
      </measure>
    <measure number="11" width="95.46">
      <attributes>
        <time>
          <beats>2</beats>
          <beat-type>4</beat-type>
          </time>
        </attributes>
      <note default-x="31.32" default-y="-140.00">
        <unpitched>
          <display-step>F</display-step>
          <display-octave>4</display-octave>
          </unpitched>
        <duration>2</duration>
        <instrument id="P2-I36"/>
        <voice>1</voice>
        <type>quarter</type>
        <stem>up</stem>
        </note>
      <note default-x="55.03" default-y="-100.00">
        <unpitched>
          <display-step>G</display-step>
          <display-octave>5</display-octave>
          </unpitched>
        <duration>2</duration>
        <instrument id="P2-I43"/>
        <voice>1</voice>
        <type>quarter</type>
        <stem>down</stem>
        <notehead>x</notehead>
        </note>
      </measure>
    <measure number="12" width="91.37">
      <note default-x="10.00" default-y="-140.00">
        <unpitched>
          <display-step>F</display-step>
          <display-octave>4</display-octave>
          </unpitched>
        <duration>1</duration>
        <instrument id="P2-I36"/>
        <voice>1</voice>
        <type>eighth</type>
        <stem>up</stem>
        <beam number="1">begin</beam>
        </note>
      <note default-x="28.87" default-y="-100.00">
        <unpitched>
          <display-step>G</display-step>
          <display-octave>5</display-octave>
          </unpitched>
        <duration>1</duration>
        <instrument id="P2-I43"/>
        <voice>1</voice>
        <type>eighth</type>
        <stem>up</stem>
        <notehead>x</notehead>
        <beam number="1">end</beam>
        </note>
      <note default-x="47.74" default-y="-140.00">
        <unpitched>
          <display-step>F</display-step>
          <display-octave>4</display-octave>
          </unpitched>
        <duration>1</duration>
        <instrument id="P2-I36"/>
        <voice>1</voice>
        <type>eighth</type>
        <stem>up</stem>
        <beam number="1">begin</beam>
        </note>
      <note default-x="66.60" default-y="-100.00">
        <unpitched>
          <display-step>G</display-step>
          <display-octave>5</display-octave>
          </unpitched>
        <duration>1</duration>
        <instrument id="P2-I43"/>
        <voice>1</voice>
        <type>eighth</type>
        <stem>up</stem>
        <notehead>x</notehead>
        <beam number="1">end</beam>
        </note>
      </measure>
    <measure number="13" width="135.15">
      <attributes>
        <time>
          <beats>3</beats>
          <beat-type>4</beat-type>
          </time>
        </attributes>
      <note default-x="30.96" default-y="-140.00">
        <unpitched>
          <display-step>F</display-step>
          <display-octave>4</display-octave>
          </unpitched>
        <duration>2</duration>
        <instrument id="P2-I36"/>
        <voice>1</voice>
        <type>quarter</type>
        <stem>up</stem>
        </note>
      <note default-x="58.59" default-y="-100.00">
        <unpitched>
          <display-step>G</display-step>
          <display-octave>5</display-octave>
          </unpitched>
        <duration>2</duration>
        <instrument id="P2-I43"/>
        <voice>1</voice>
        <type>quarter</type>
        <stem>down</stem>
        <notehead>x</notehead>
        </note>
      <note default-x="93.12" default-y="-100.00">
        <unpitched>
          <display-step>G</display-step>
          <display-octave>5</display-octave>
          </unpitched>
        <duration>2</duration>
        <instrument id="P2-I43"/>
        <voice>1</voice>
        <type>quarter</type>
        <stem>down</stem>
        <notehead>x</notehead>
        </note>
      </measure>
    <measure number="14" width="95.46">
      <attributes>
        <time>
          <beats>2</beats>
          <beat-type>4</beat-type>
          </time>
        </attributes>
      <note default-x="31.32" default-y="-140.00">
        <unpitched>
          <display-step>F</display-step>
          <display-octave>4</display-octave>
          </unpitched>
        <duration>2</duration>
        <instrument id="P2-I36"/>
        <voice>1</voice>
        <type>quarter</type>
        <stem>up</stem>
        </note>
      <note default-x="55.03" default-y="-100.00">
        <unpitched>
          <display-step>G</display-step>
          <display-octave>5</display-octave>
          </unpitched>
        <duration>2</duration>
        <instrument id="P2-I43"/>
        <voice>1</voice>
        <type>quarter</type>
        <stem>down</stem>
        <notehead>x</notehead>
        </note>
      </measure>
    <measure number="15" width="108.14">
      <note default-x="10.00" default-y="-140.00">
        <unpitched>
          <display-step>F</display-step>
          <display-octave>4</display-octave>
          </unpitched>
        <duration>1</duration>
        <instrument id="P2-I36"/>
        <voice>1</voice>
        <type>eighth</type>
        <stem>up</stem>
        <beam number="1">begin</beam>
        </note>
      <note default-x="28.87" default-y="-100.00">
        <unpitched>
          <display-step>G</display-step>
          <display-octave>5</display-octave>
          </unpitched>
        <duration>1</duration>
        <instrument id="P2-I43"/>
        <voice>1</voice>
        <type>eighth</type>
        <stem>up</stem>
        <notehead>x</notehead>
        <beam number="1">end</beam>
        </note>
      <note default-x="47.74" default-y="-140.00">
        <unpitched>
          <display-step>F</display-step>
          <display-octave>4</display-octave>
          </unpitched>
        <duration>1</duration>
        <instrument id="P2-I36"/>
        <voice>1</voice>
        <type>eighth</type>
        <stem>up</stem>
        <beam number="1">begin</beam>
        </note>
      <note default-x="66.60" default-y="-100.00">
        <unpitched>
          <display-step>G</display-step>
          <display-octave>5</display-octave>
          </unpitched>
        <duration>1</duration>
        <instrument id="P2-I43"/>
        <voice>1</voice>
        <type>eighth</type>
        <stem>up</stem>
        <notehead>x</notehead>
        <beam number="1">end</beam>
        </note>
      <barline location="right">
        <bar-style>light-heavy</bar-style>
        <repeat direction="backward"/>
        </barline>
      </measure>
    <measure number="16" width="250.50">
      <print new-system="yes">
        <staff-layout number="1">
          <staff-distance>65.00</staff-distance>
          </staff-layout>
        </print>
      <note default-x="63.57" default-y="-140.00">
        <unpitched>
          <display-step>F</display-step>
          <display-octave>4</display-octave>
          </unpitched>
        <duration>2</duration>
        <instrument id="P2-I36"/>
        <voice>1</voice>
        <type>quarter</type>
        <stem>up</stem>
        </note>
      <note default-x="151.74" default-y="-90.00">
        <unpitched>
          <display-step>B</display-step>
          <display-octave>5</display-octave>
          </unpitched>
        <duration>2</duration>
        <instrument id="P2-I58"/>
        <voice>1</voice>
        <type>quarter</type>
        <stem>down</stem>
        <notehead>x</notehead>
        </note>
      <barline location="right">
        <bar-style>light-heavy</bar-style>
        </barline>
      </measure>
    </part>
  <part id="P3">
    <measure number="1" width="206.91">
      <print>
        <staff-layout number="1">
          <staff-distance>65.00</staff-distance>
          </staff-layout>
        </print>
      <attributes>
        <divisions>2</divisions>
        <key>
          <fifths>0</fifths>
          </key>
        <time>
          <beats>3</beats>
          <beat-type>4</beat-type>
          </time>
        <clef>
          <sign>percussion</sign>
          <line>2</line>
          </clef>
        <staff-details>
          <staff-lines>1</staff-lines>
          </staff-details>
        </attributes>
      <note>
        <rest/>
        <duration>2</duration>
        <voice>1</voice>
        <type>quarter</type>
        </note>
      <note default-x="98.26" default-y="-210.00">
        <grace slash="yes"/>
        <unpitched>
          <display-step>E</display-step>
          <display-octave>4</display-octave>
          </unpitched>
        <instrument id="P3-I39"/>
        <voice>1</voice>
        <type>eighth</type>
        <stem>up</stem>
        </note>
      <note default-x="116.71" default-y="-210.00">
        <unpitched>
          <display-step>E</display-step>
          <display-octave>4</display-octave>
          </unpitched>
        <duration>2</duration>
        <instrument id="P3-I39"/>
        <voice>1</voice>
        <type>quarter</type>
        <stem>down</stem>
        </note>
      <note default-x="141.89" default-y="-210.00">
        <grace slash="yes"/>
        <unpitched>
          <display-step>E</display-step>
          <display-octave>4</display-octave>
          </unpitched>
        <instrument id="P3-I39"/>
        <voice>1</voice>
        <type>eighth</type>
        <stem>up</stem>
        </note>
      <note default-x="160.33" default-y="-210.00">
        <unpitched>
          <display-step>E</display-step>
          <display-octave>4</display-octave>
          </unpitched>
        <duration>2</duration>
        <instrument id="P3-I39"/>
        <voice>1</voice>
        <type>quarter</type>
        <stem>down</stem>
        </note>
      </measure>
    <measure number="2" width="136.80">
      <note>
        <rest/>
        <duration>2</duration>
        <voice>1</voice>
        <type>quarter</type>
        </note>
      <note default-x="32.93" default-y="-210.00">
        <grace slash="yes"/>
        <unpitched>
          <display-step>E</display-step>
          <display-octave>4</display-octave>
          </unpitched>
        <instrument id="P3-I39"/>
        <voice>1</voice>
        <type>eighth</type>
        <stem>up</stem>
        </note>
      <note default-x="51.38" default-y="-210.00">
        <unpitched>
          <display-step>E</display-step>
          <display-octave>4</display-octave>
          </unpitched>
        <duration>2</duration>
        <instrument id="P3-I39"/>
        <voice>1</voice>
        <type>quarter</type>
        <stem>down</stem>
        </note>
      <note default-x="73.37" default-y="-210.00">
        <grace slash="yes"/>
        <unpitched>
          <display-step>E</display-step>
          <display-octave>4</display-octave>
          </unpitched>
        <instrument id="P3-I39"/>
        <voice>1</voice>
        <type>eighth</type>
        <stem>up</stem>
        </note>
      <note default-x="91.82" default-y="-210.00">
        <unpitched>
          <display-step>E</display-step>
          <display-octave>4</display-octave>
          </unpitched>
        <duration>2</duration>
        <instrument id="P3-I39"/>
        <voice>1</voice>
        <type>quarter</type>
        <stem>down</stem>
        </note>
      </measure>
    <measure number="3" width="136.80">
      <note>
        <rest/>
        <duration>2</duration>
        <voice>1</voice>
        <type>quarter</type>
        </note>
      <note default-x="32.93" default-y="-210.00">
        <grace slash="yes"/>
        <unpitched>
          <display-step>E</display-step>
          <display-octave>4</display-octave>
          </unpitched>
        <instrument id="P3-I39"/>
        <voice>1</voice>
        <type>eighth</type>
        <stem>up</stem>
        </note>
      <note default-x="51.38" default-y="-210.00">
        <unpitched>
          <display-step>E</display-step>
          <display-octave>4</display-octave>
          </unpitched>
        <duration>2</duration>
        <instrument id="P3-I39"/>
        <voice>1</voice>
        <type>quarter</type>
        <stem>down</stem>
        </note>
      <note default-x="73.37" default-y="-210.00">
        <grace slash="yes"/>
        <unpitched>
          <display-step>E</display-step>
          <display-octave>4</display-octave>
          </unpitched>
        <instrument id="P3-I39"/>
        <voice>1</voice>
        <type>eighth</type>
        <stem>up</stem>
        </note>
      <note default-x="91.82" default-y="-210.00">
        <unpitched>
          <display-step>E</display-step>
          <display-octave>4</display-octave>
          </unpitched>
        <duration>2</duration>
        <instrument id="P3-I39"/>
        <voice>1</voice>
        <type>quarter</type>
        <stem>down</stem>
        </note>
      </measure>
    <measure number="4" width="198.11">
      <attributes>
        <time>
          <beats>5</beats>
          <beat-type>4</beat-type>
          </time>
        </attributes>
      <note default-x="30.96" default-y="-210.00">
        <unpitched>
          <display-step>E</display-step>
          <display-octave>4</display-octave>
          </unpitched>
        <duration>2</duration>
        <instrument id="P3-I39"/>
        <voice>1</voice>
        <type>quarter</type>
        <stem>down</stem>
        </note>
      <note default-x="61.48" default-y="-210.00">
        <unpitched>
          <display-step>E</display-step>
          <display-octave>4</display-octave>
          </unpitched>
        <duration>1</duration>
        <instrument id="P3-I39"/>
        <voice>1</voice>
        <type>eighth</type>
        <stem>down</stem>
        <beam number="1">begin</beam>
        </note>
      <note default-x="80.55" default-y="-210.00">
        <unpitched>
          <display-step>E</display-step>
          <display-octave>4</display-octave>
          </unpitched>
        <duration>1</duration>
        <instrument id="P3-I39"/>
        <voice>1</voice>
        <type>eighth</type>
        <stem>down</stem>
        <beam number="1">end</beam>
        </note>
      <note default-x="99.62" default-y="-210.00">
        <unpitched>
          <display-step>E</display-step>
          <display-octave>4</display-octave>
          </unpitched>
        <duration>2</duration>
        <instrument id="P3-I39"/>
        <voice>1</voice>
        <type>quarter</type>
        <stem>down</stem>
        </note>
      <note default-x="117.04" default-y="-210.00">
        <grace slash="yes"/>
        <unpitched>
          <display-step>E</display-step>
          <display-octave>4</display-octave>
          </unpitched>
        <instrument id="P3-I39"/>
        <voice>1</voice>
        <type>eighth</type>
        <stem>up</stem>
        </note>
      <note default-x="135.48" default-y="-210.00">
        <unpitched>
          <display-step>E</display-step>
          <display-octave>4</display-octave>
          </unpitched>
        <duration>2</duration>
        <instrument id="P3-I39"/>
        <voice>1</voice>
        <type>quarter</type>
        <stem>down</stem>
        </note>
      <note>
        <rest/>
        <duration>2</duration>
        <voice>1</voice>
        <type>quarter</type>
        </note>
      </measure>
    <measure number="5" width="167.78">
      <attributes>
        <time>
          <beats>3</beats>
          <beat-type>4</beat-type>
          </time>
        </attributes>
      <note>
        <rest/>
        <duration>2</duration>
        <voice>1</voice>
        <type>quarter</type>
        </note>
      <note default-x="51.82" default-y="-210.00">
        <grace slash="yes"/>
        <unpitched>
          <display-step>E</display-step>
          <display-octave>4</display-octave>
          </unpitched>
        <instrument id="P3-I39"/>
        <voice>1</voice>
        <type>eighth</type>
        <stem>up</stem>
        </note>
      <note default-x="70.27" default-y="-210.00">
        <unpitched>
          <display-step>E</display-step>
          <display-octave>4</display-octave>
          </unpitched>
        <duration>2</duration>
        <instrument id="P3-I39"/>
        <voice>1</voice>
        <type>quarter</type>
        <stem>down</stem>
        </note>
      <note default-x="99.78" default-y="-210.00">
        <grace slash="yes"/>
        <unpitched>
          <display-step>E</display-step>
          <display-octave>4</display-octave>
          </unpitched>
        <instrument id="P3-I39"/>
        <voice>1</voice>
        <type>eighth</type>
        <stem>up</stem>
        </note>
      <note default-x="118.23" default-y="-210.00">
        <unpitched>
          <display-step>E</display-step>
          <display-octave>4</display-octave>
          </unpitched>
        <duration>2</duration>
        <instrument id="P3-I39"/>
        <voice>1</voice>
        <type>quarter</type>
        <stem>down</stem>
        </note>
      </measure>
    <measure number="6" width="151.95">
      <note>
        <rest/>
        <duration>2</duration>
        <voice>1</voice>
        <type>quarter</type>
        </note>
      <note default-x="38.97" default-y="-210.00">
        <grace slash="yes"/>
        <unpitched>
          <display-step>E</display-step>
          <display-octave>4</display-octave>
          </unpitched>
        <instrument id="P3-I39"/>
        <voice>1</voice>
        <type>eighth</type>
        <stem>up</stem>
        </note>
      <note default-x="57.41" default-y="-210.00">
        <unpitched>
          <display-step>E</display-step>
          <display-octave>4</display-octave>
          </unpitched>
        <duration>2</duration>
        <instrument id="P3-I39"/>
        <voice>1</voice>
        <type>quarter</type>
        <stem>down</stem>
        </note>
      <note default-x="85.44" default-y="-210.00">
        <grace slash="yes"/>
        <unpitched>
          <display-step>E</display-step>
          <display-octave>4</display-octave>
          </unpitched>
        <instrument id="P3-I39"/>
        <voice>1</voice>
        <type>eighth</type>
        <stem>up</stem>
        </note>
      <note default-x="103.88" default-y="-210.00">
        <unpitched>
          <display-step>E</display-step>
          <display-octave>4</display-octave>
          </unpitched>
        <duration>2</duration>
        <instrument id="P3-I39"/>
        <voice>1</voice>
        <type>quarter</type>
        <stem>down</stem>
        </note>
      </measure>
    <measure number="7" width="199.46">
      <print new-system="yes">
        <staff-layout number="1">
          <staff-distance>65.00</staff-distance>
          </staff-layout>
        </print>
      <note>
        <rest/>
        <duration>2</duration>
        <voice>1</voice>
        <type>quarter</type>
        </note>
      <note default-x="87.30" default-y="-210.00">
        <grace slash="yes"/>
        <unpitched>
          <display-step>E</display-step>
          <display-octave>4</display-octave>
          </unpitched>
        <instrument id="P3-I39"/>
        <voice>1</voice>
        <type>eighth</type>
        <stem>up</stem>
        </note>
      <note default-x="105.74" default-y="-210.00">
        <unpitched>
          <display-step>E</display-step>
          <display-octave>4</display-octave>
          </unpitched>
        <duration>2</duration>
        <instrument id="P3-I39"/>
        <voice>1</voice>
        <type>quarter</type>
        <stem>down</stem>
        </note>
      <note default-x="133.27" default-y="-210.00">
        <grace slash="yes"/>
        <unpitched>
          <display-step>E</display-step>
          <display-octave>4</display-octave>
          </unpitched>
        <instrument id="P3-I39"/>
        <voice>1</voice>
        <type>eighth</type>
        <stem>up</stem>
        </note>
      <note default-x="151.71" default-y="-210.00">
        <unpitched>
          <display-step>E</display-step>
          <display-octave>4</display-octave>
          </unpitched>
        <duration>2</duration>
        <instrument id="P3-I39"/>
        <voice>1</voice>
        <type>quarter</type>
        <stem>down</stem>
        </note>
      </measure>
    <measure number="8" width="95.10">
      <attributes>
        <time>
          <beats>2</beats>
          <beat-type>4</beat-type>
          </time>
        </attributes>
      <note default-x="30.96" default-y="-210.00">
        <unpitched>
          <display-step>E</display-step>
          <display-octave>4</display-octave>
          </unpitched>
        <duration>2</duration>
        <instrument id="P3-I39"/>
        <voice>1</voice>
        <type>quarter</type>
        <stem>down</stem>
        </note>
      <note default-x="54.67" default-y="-210.00">
        <unpitched>
          <display-step>E</display-step>
          <display-octave>4</display-octave>
          </unpitched>
        <duration>1</duration>
        <instrument id="P3-I39"/>
        <voice>1</voice>
        <type>eighth</type>
        <stem>down</stem>
        <beam number="1">begin</beam>
        </note>
      <note default-x="70.33" default-y="-210.00">
        <unpitched>
          <display-step>E</display-step>
          <display-octave>4</display-octave>
          </unpitched>
        <duration>1</duration>
        <instrument id="P3-I39"/>
        <voice>1</voice>
        <type>eighth</type>
        <stem>down</stem>
        <beam number="1">end</beam>
        </note>
      </measure>
    <measure number="9" width="89.77">
      <note default-x="10.00" default-y="-210.00">
        <unpitched>
          <display-step>E</display-step>
          <display-octave>4</display-octave>
          </unpitched>
        <duration>2</duration>
        <instrument id="P3-I39"/>
        <voice>1</voice>
        <type>quarter</type>
        <stem>down</stem>
        <notations>
          <ornaments>
            <tremolo type="single">2</tremolo>
            </ornaments>
          </notations>
        </note>
      <note default-x="47.74" default-y="-210.00">
        <unpitched>
          <display-step>E</display-step>
          <display-octave>4</display-octave>
          </unpitched>
        <duration>1</duration>
        <instrument id="P3-I39"/>
        <voice>1</voice>
        <type>eighth</type>
        <stem>down</stem>
        <beam number="1">begin</beam>
        </note>
      <note default-x="66.60" default-y="-210.00">
        <unpitched>
          <display-step>E</display-step>
          <display-octave>4</display-octave>
          </unpitched>
        <duration>1</duration>
        <instrument id="P3-I39"/>
        <voice>1</voice>
        <type>eighth</type>
        <stem>down</stem>
        <beam number="1">end</beam>
        </note>
      </measure>
    <measure number="10" width="167.26">
      <barline location="left">
        <bar-style>heavy-light</bar-style>
        <repeat direction="forward"/>
        </barline>
      <attributes>
        <time>
          <beats>3</beats>
          <beat-type>4</beat-type>
          </time>
        </attributes>
      <note default-x="54.33" default-y="-210.00">
        <unpitched>
          <display-step>E</display-step>
          <display-octave>4</display-octave>
          </unpitched>
        <duration>2</duration>
        <instrument id="P3-I39"/>
        <voice>1</voice>
        <type>quarter</type>
        <stem>down</stem>
        </note>
      <note default-x="84.99" default-y="-210.00">
        <unpitched>
          <display-step>E</display-step>
          <display-octave>4</display-octave>
          </unpitched>
        <duration>1</duration>
        <instrument id="P3-I39"/>
        <voice>1</voice>
        <type>eighth</type>
        <stem>down</stem>
        <beam number="1">begin</beam>
        </note>
      <note default-x="104.16" default-y="-210.00">
        <unpitched>
          <display-step>E</display-step>
          <display-octave>4</display-octave>
          </unpitched>
        <duration>1</duration>
        <instrument id="P3-I39"/>
        <voice>1</voice>
        <type>eighth</type>
        <stem>down</stem>
        <beam number="1">end</beam>
        </note>
      <note default-x="123.33" default-y="-210.00">
        <unpitched>
          <display-step>E</display-step>
          <display-octave>4</display-octave>
          </unpitched>
        <duration>1</duration>
        <instrument id="P3-I39"/>
        <voice>1</voice>
        <type>eighth</type>
        <stem>down</stem>
        <beam number="1">begin</beam>
        </note>
      <note default-x="142.49" default-y="-210.00">
        <unpitched>
          <display-step>E</display-step>
          <display-octave>4</display-octave>
          </unpitched>
        <duration>1</duration>
        <instrument id="P3-I39"/>
        <voice>1</voice>
        <type>eighth</type>
        <stem>down</stem>
        <beam number="1">end</beam>
        </note>
      </measure>
    <measure number="11" width="95.46">
      <attributes>
        <time>
          <beats>2</beats>
          <beat-type>4</beat-type>
          </time>
        </attributes>
      <note default-x="30.96" default-y="-210.00">
        <unpitched>
          <display-step>E</display-step>
          <display-octave>4</display-octave>
          </unpitched>
        <duration>4</duration>
        <instrument id="P3-I39"/>
        <voice>1</voice>
        <type>half</type>
        <stem>down</stem>
        <notations>
          <ornaments>
            <tremolo type="single">3</tremolo>
            </ornaments>
          </notations>
        </note>
      </measure>
    <measure number="12" width="91.37">
      <note default-x="10.00" default-y="-210.00">
        <unpitched>
          <display-step>E</display-step>
          <display-octave>4</display-octave>
          </unpitched>
        <duration>1</duration>
        <instrument id="P3-I39"/>
        <voice>1</voice>
        <type>eighth</type>
        <stem>down</stem>
        <beam number="1">begin</beam>
        </note>
      <note default-x="28.87" default-y="-210.00">
        <unpitched>
          <display-step>E</display-step>
          <display-octave>4</display-octave>
          </unpitched>
        <duration>1</duration>
        <instrument id="P3-I39"/>
        <voice>1</voice>
        <type>eighth</type>
        <stem>down</stem>
        <beam number="1">end</beam>
        </note>
      <note default-x="47.74" default-y="-210.00">
        <unpitched>
          <display-step>E</display-step>
          <display-octave>4</display-octave>
          </unpitched>
        <duration>1</duration>
        <instrument id="P3-I39"/>
        <voice>1</voice>
        <type>eighth</type>
        <stem>down</stem>
        <beam number="1">begin</beam>
        </note>
      <note default-x="66.60" default-y="-210.00">
        <unpitched>
          <display-step>E</display-step>
          <display-octave>4</display-octave>
          </unpitched>
        <duration>1</duration>
        <instrument id="P3-I39"/>
        <voice>1</voice>
        <type>eighth</type>
        <stem>down</stem>
        <beam number="1">end</beam>
        </note>
      </measure>
    <measure number="13" width="135.15">
      <attributes>
        <time>
          <beats>3</beats>
          <beat-type>4</beat-type>
          </time>
        </attributes>
      <note default-x="30.96" default-y="-210.00">
        <unpitched>
          <display-step>E</display-step>
          <display-octave>4</display-octave>
          </unpitched>
        <duration>2</duration>
        <instrument id="P3-I39"/>
        <voice>1</voice>
        <type>quarter</type>
        <stem>down</stem>
        </note>
      <note default-x="58.59" default-y="-210.00">
        <unpitched>
          <display-step>E</display-step>
          <display-octave>4</display-octave>
          </unpitched>
        <duration>1</duration>
        <instrument id="P3-I39"/>
        <voice>1</voice>
        <type>eighth</type>
        <stem>down</stem>
        <beam number="1">begin</beam>
        </note>
      <note default-x="75.85" default-y="-210.00">
        <unpitched>
          <display-step>E</display-step>
          <display-octave>4</display-octave>
          </unpitched>
        <duration>1</duration>
        <instrument id="P3-I39"/>
        <voice>1</voice>
        <type>eighth</type>
        <stem>down</stem>
        <beam number="1">end</beam>
        </note>
      <note default-x="93.12" default-y="-210.00">
        <unpitched>
          <display-step>E</display-step>
          <display-octave>4</display-octave>
          </unpitched>
        <duration>1</duration>
        <instrument id="P3-I39"/>
        <voice>1</voice>
        <type>eighth</type>
        <stem>down</stem>
        <beam number="1">begin</beam>
        </note>
      <note default-x="110.39" default-y="-210.00">
        <unpitched>
          <display-step>E</display-step>
          <display-octave>4</display-octave>
          </unpitched>
        <duration>1</duration>
        <instrument id="P3-I39"/>
        <voice>1</voice>
        <type>eighth</type>
        <stem>down</stem>
        <beam number="1">end</beam>
        </note>
      </measure>
    <measure number="14" width="95.46">
      <attributes>
        <time>
          <beats>2</beats>
          <beat-type>4</beat-type>
          </time>
        </attributes>
      <note default-x="30.96" default-y="-210.00">
        <unpitched>
          <display-step>E</display-step>
          <display-octave>4</display-octave>
          </unpitched>
        <duration>4</duration>
        <instrument id="P3-I39"/>
        <voice>1</voice>
        <type>half</type>
        <stem>down</stem>
        <notations>
          <ornaments>
            <tremolo type="single">3</tremolo>
            </ornaments>
          </notations>
        </note>
      </measure>
    <measure number="15" width="108.14">
      <note default-x="10.00" default-y="-210.00">
        <unpitched>
          <display-step>E</display-step>
          <display-octave>4</display-octave>
          </unpitched>
        <duration>1</duration>
        <instrument id="P3-I39"/>
        <voice>1</voice>
        <type>eighth</type>
        <stem>down</stem>
        <beam number="1">begin</beam>
        </note>
      <note default-x="28.87" default-y="-210.00">
        <unpitched>
          <display-step>E</display-step>
          <display-octave>4</display-octave>
          </unpitched>
        <duration>1</duration>
        <instrument id="P3-I39"/>
        <voice>1</voice>
        <type>eighth</type>
        <stem>down</stem>
        <beam number="1">end</beam>
        </note>
      <note default-x="47.74" default-y="-210.00">
        <unpitched>
          <display-step>E</display-step>
          <display-octave>4</display-octave>
          </unpitched>
        <duration>1</duration>
        <instrument id="P3-I39"/>
        <voice>1</voice>
        <type>eighth</type>
        <stem>down</stem>
        <beam number="1">begin</beam>
        </note>
      <note default-x="66.60" default-y="-210.00">
        <unpitched>
          <display-step>E</display-step>
          <display-octave>4</display-octave>
          </unpitched>
        <duration>1</duration>
        <instrument id="P3-I39"/>
        <voice>1</voice>
        <type>eighth</type>
        <stem>down</stem>
        <beam number="1">end</beam>
        </note>
      <barline location="right">
        <bar-style>light-heavy</bar-style>
        <repeat direction="backward"/>
        </barline>
      </measure>
    <measure number="16" width="250.50">
      <print new-system="yes">
        <staff-layout number="1">
          <staff-distance>65.00</staff-distance>
          </staff-layout>
        </print>
      <note default-x="63.57" default-y="-210.00">
        <unpitched>
          <display-step>E</display-step>
          <display-octave>4</display-octave>
          </unpitched>
        <duration>2</duration>
        <instrument id="P3-I39"/>
        <voice>1</voice>
        <type>quarter</type>
        <stem>down</stem>
        </note>
      <note>
        <rest/>
        <duration>2</duration>
        <voice>1</voice>
        <type>quarter</type>
        </note>
      <barline location="right">
        <bar-style>light-heavy</bar-style>
        </barline>
      </measure>
    </part>
  </score-partwise>
