<?xml version="1.0" encoding="UTF-8"?>
<!DOCTYPE score-partwise PUBLIC "-//Recordare//DTD MusicXML 2.0 Partwise//EN" "http://www.musicxml.org/dtds/partwise.dtd">
<score-partwise>
  <work>
    <work-title>Chiquichiqui de Lourido</work-title>
    </work>
  <identification>
    <encoding>
      <software>MuseScore 1.3</software>
      <encoding-date>2015-07-05</encoding-date>
      </encoding>
    </identification>
  <defaults>
    <scaling>
      <millimeters>7.056</millimeters>
      <tenths>40</tenths>
      </scaling>
    <page-layout>
      <page-height>1683.67</page-height>
      <page-width>1190.48</page-width>
      <page-margins type="even">
        <left-margin>56.6893</left-margin>
        <right-margin>56.6893</right-margin>
        <top-margin>56.6893</top-margin>
        <bottom-margin>113.379</bottom-margin>
        </page-margins>
      <page-margins type="odd">
        <left-margin>56.6893</left-margin>
        <right-margin>56.6893</right-margin>
        <top-margin>56.6893</top-margin>
        <bottom-margin>113.379</bottom-margin>
        </page-margins>
      </page-layout>
    </defaults>
  <credit page="1">
    <credit-words default-x="595.238" default-y="1626.98" font-size="24" justify="center" valign="top">Chiquichiqui de Lourido</credit-words>
    </credit>
  <part-list>
    <score-part id="P1">
      <part-name>Voz</part-name>
      <score-instrument id="P1-I3">
        <instrument-name>Voz</instrument-name>
        </score-instrument>
      <midi-instrument id="P1-I3">
        <midi-channel>1</midi-channel>
        <midi-program>110</midi-program>
        <volume>78.7402</volume>
        <pan>0</pan>
        </midi-instrument>
      </score-part>
    <score-part id="P2">
      <part-name>Pandeireta
</part-name>
      <score-instrument id="P2-I36">
        <instrument-name>Acoustic Bass Drum</instrument-name>
        </score-instrument>
      <score-instrument id="P2-I37">
        <instrument-name>Bass Drum</instrument-name>
        </score-instrument>
      <score-instrument id="P2-I38">
        <instrument-name>Side Stick</instrument-name>
        </score-instrument>
      <score-instrument id="P2-I39">
        <instrument-name>Snare (Acoustic)</instrument-name>
        </score-instrument>
      <score-instrument id="P2-I41">
        <instrument-name>Snare (Electric)</instrument-name>
        </score-instrument>
      <score-instrument id="P2-I42">
        <instrument-name>Tom 5</instrument-name>
        </score-instrument>
      <score-instrument id="P2-I43">
        <instrument-name>Hi-Hat Closed</instrument-name>
        </score-instrument>
      <score-instrument id="P2-I44">
        <instrument-name>Tom 4</instrument-name>
        </score-instrument>
      <score-instrument id="P2-I45">
        <instrument-name>Hi-Hat Pedal</instrument-name>
        </score-instrument>
      <score-instrument id="P2-I46">
        <instrument-name>Tom 3</instrument-name>
        </score-instrument>
      <score-instrument id="P2-I47">
        <instrument-name>Hi-Hat Open</instrument-name>
        </score-instrument>
      <score-instrument id="P2-I48">
        <instrument-name>Tom 2</instrument-name>
        </score-instrument>
      <score-instrument id="P2-I49">
        <instrument-name>Tom 1</instrument-name>
        </score-instrument>
      <score-instrument id="P2-I50">
        <instrument-name>Crash 1</instrument-name>
        </score-instrument>
      <score-instrument id="P2-I51">
        <instrument-name>Tom</instrument-name>
        </score-instrument>
      <score-instrument id="P2-I52">
        <instrument-name>Ride</instrument-name>
        </score-instrument>
      <score-instrument id="P2-I53">
        <instrument-name>China</instrument-name>
        </score-instrument>
      <score-instrument id="P2-I54">
        <instrument-name>Ride (Bell)</instrument-name>
        </score-instrument>
      <score-instrument id="P2-I55">
        <instrument-name>Tambourine</instrument-name>
        </score-instrument>
      <score-instrument id="P2-I56">
        <instrument-name>Ride (Bell)</instrument-name>
        </score-instrument>
      <score-instrument id="P2-I57">
        <instrument-name>Ride (Bell)</instrument-name>
        </score-instrument>
      <score-instrument id="P2-I58">
        <instrument-name>Ride (Bell)</instrument-name>
        </score-instrument>
      <score-instrument id="P2-I60">
        <instrument-name>Ride (Bell)</instrument-name>
        </score-instrument>
      <score-instrument id="P2-I64">
        <instrument-name>open high conga</instrument-name>
        </score-instrument>
      <score-instrument id="P2-I65">
        <instrument-name>low conga</instrument-name>
        </score-instrument>
      <midi-instrument id="P2-I36">
        <midi-channel>10</midi-channel>
        <midi-program>1</midi-program>
        <midi-unpitched>36</midi-unpitched>
        <volume>78.7402</volume>
        <pan>0</pan>
        </midi-instrument>
      <midi-instrument id="P2-I37">
        <midi-channel>10</midi-channel>
        <midi-program>1</midi-program>
        <midi-unpitched>37</midi-unpitched>
        <volume>78.7402</volume>
        <pan>0</pan>
        </midi-instrument>
      <midi-instrument id="P2-I38">
        <midi-channel>10</midi-channel>
        <midi-program>1</midi-program>
        <midi-unpitched>38</midi-unpitched>
        <volume>78.7402</volume>
        <pan>0</pan>
        </midi-instrument>
      <midi-instrument id="P2-I39">
        <midi-channel>10</midi-channel>
        <midi-program>1</midi-program>
        <midi-unpitched>39</midi-unpitched>
        <volume>78.7402</volume>
        <pan>0</pan>
        </midi-instrument>
      <midi-instrument id="P2-I41">
        <midi-channel>10</midi-channel>
        <midi-program>1</midi-program>
        <midi-unpitched>41</midi-unpitched>
        <volume>78.7402</volume>
        <pan>0</pan>
        </midi-instrument>
      <midi-instrument id="P2-I42">
        <midi-channel>10</midi-channel>
        <midi-program>1</midi-program>
        <midi-unpitched>42</midi-unpitched>
        <volume>78.7402</volume>
        <pan>0</pan>
        </midi-instrument>
      <midi-instrument id="P2-I43">
        <midi-channel>10</midi-channel>
        <midi-program>1</midi-program>
        <midi-unpitched>43</midi-unpitched>
        <volume>78.7402</volume>
        <pan>0</pan>
        </midi-instrument>
      <midi-instrument id="P2-I44">
        <midi-channel>10</midi-channel>
        <midi-program>1</midi-program>
        <midi-unpitched>44</midi-unpitched>
        <volume>78.7402</volume>
        <pan>0</pan>
        </midi-instrument>
      <midi-instrument id="P2-I45">
        <midi-channel>10</midi-channel>
        <midi-program>1</midi-program>
        <midi-unpitched>45</midi-unpitched>
        <volume>78.7402</volume>
        <pan>0</pan>
        </midi-instrument>
      <midi-instrument id="P2-I46">
        <midi-channel>10</midi-channel>
        <midi-program>1</midi-program>
        <midi-unpitched>46</midi-unpitched>
        <volume>78.7402</volume>
        <pan>0</pan>
        </midi-instrument>
      <midi-instrument id="P2-I47">
        <midi-channel>10</midi-channel>
        <midi-program>1</midi-program>
        <midi-unpitched>47</midi-unpitched>
        <volume>78.7402</volume>
        <pan>0</pan>
        </midi-instrument>
      <midi-instrument id="P2-I48">
        <midi-channel>10</midi-channel>
        <midi-program>1</midi-program>
        <midi-unpitched>48</midi-unpitched>
        <volume>78.7402</volume>
        <pan>0</pan>
        </midi-instrument>
      <midi-instrument id="P2-I49">
        <midi-channel>10</midi-channel>
        <midi-program>1</midi-program>
        <midi-unpitched>49</midi-unpitched>
        <volume>78.7402</volume>
        <pan>0</pan>
        </midi-instrument>
      <midi-instrument id="P2-I50">
        <midi-channel>10</midi-channel>
        <midi-program>1</midi-program>
        <midi-unpitched>50</midi-unpitched>
        <volume>78.7402</volume>
        <pan>0</pan>
        </midi-instrument>
      <midi-instrument id="P2-I51">
        <midi-channel>10</midi-channel>
        <midi-program>1</midi-program>
        <midi-unpitched>51</midi-unpitched>
        <volume>78.7402</volume>
        <pan>0</pan>
        </midi-instrument>
      <midi-instrument id="P2-I52">
        <midi-channel>10</midi-channel>
        <midi-program>1</midi-program>
        <midi-unpitched>52</midi-unpitched>
        <volume>78.7402</volume>
        <pan>0</pan>
        </midi-instrument>
      <midi-instrument id="P2-I53">
        <midi-channel>10</midi-channel>
        <midi-program>1</midi-program>
        <midi-unpitched>53</midi-unpitched>
        <volume>78.7402</volume>
        <pan>0</pan>
        </midi-instrument>
      <midi-instrument id="P2-I54">
        <midi-channel>10</midi-channel>
        <midi-program>1</midi-program>
        <midi-unpitched>54</midi-unpitched>
        <volume>78.7402</volume>
        <pan>0</pan>
        </midi-instrument>
      <midi-instrument id="P2-I55">
        <midi-channel>10</midi-channel>
        <midi-program>1</midi-program>
        <midi-unpitched>55</midi-unpitched>
        <volume>78.7402</volume>
        <pan>0</pan>
        </midi-instrument>
      <midi-instrument id="P2-I56">
        <midi-channel>10</midi-channel>
        <midi-program>1</midi-program>
        <midi-unpitched>56</midi-unpitched>
        <volume>78.7402</volume>
        <pan>0</pan>
        </midi-instrument>
      <midi-instrument id="P2-I57">
        <midi-channel>10</midi-channel>
        <midi-program>1</midi-program>
        <midi-unpitched>57</midi-unpitched>
        <volume>78.7402</volume>
        <pan>0</pan>
        </midi-instrument>
      <midi-instrument id="P2-I58">
        <midi-channel>10</midi-channel>
        <midi-program>1</midi-program>
        <midi-unpitched>58</midi-unpitched>
        <volume>78.7402</volume>
        <pan>0</pan>
        </midi-instrument>
      <midi-instrument id="P2-I60">
        <midi-channel>10</midi-channel>
        <midi-program>1</midi-program>
        <midi-unpitched>60</midi-unpitched>
        <volume>78.7402</volume>
        <pan>0</pan>
        </midi-instrument>
      <midi-instrument id="P2-I64">
        <midi-channel>10</midi-channel>
        <midi-program>1</midi-program>
        <midi-unpitched>64</midi-unpitched>
        <volume>78.7402</volume>
        <pan>0</pan>
        </midi-instrument>
      <midi-instrument id="P2-I65">
        <midi-channel>10</midi-channel>
        <midi-program>1</midi-program>
        <midi-unpitched>65</midi-unpitched>
        <volume>78.7402</volume>
        <pan>0</pan>
        </midi-instrument>
      </score-part>
    </part-list>
  <part id="P1">
    <measure number="1" width="344.75">
      <print>
        <system-layout>
          <system-margins>
            <left-margin>126.20</left-margin>
            <right-margin>-0.00</right-margin>
            </system-margins>
          <top-system-distance>239.53</top-system-distance>
          </system-layout>
        </print>
      <attributes>
        <divisions>2</divisions>
        <key>
          <fifths>0</fifths>
          <mode>major</mode>
          </key>
        <time>
          <beats>3</beats>
          <beat-type>4</beat-type>
          </time>
        <clef>
          <sign>G</sign>
          <line>2</line>
          <clef-octave-change>1</clef-octave-change>
          </clef>
        </attributes>
      <direction placement="above">
        <direction-type>
          <words>Prestissimo</words>
          </direction-type>
        <sound tempo="200"/>
        </direction>
      <note default-x="89.34" default-y="-50.00">
        <pitch>
          <step>C</step>
          <octave>5</octave>
          </pitch>
        <duration>1</duration>
        <voice>1</voice>
        <type>eighth</type>
        <stem>up</stem>
        <beam number="1">begin</beam>
        <lyric number="1">
          <syllabic>begin</syllabic>
          <text>A</text>
          </lyric>
        </note>
      <note default-x="131.65" default-y="-55.00">
        <pitch>
          <step>B</step>
          <octave>4</octave>
          </pitch>
        <duration>1</duration>
        <voice>1</voice>
        <type>eighth</type>
        <stem>up</stem>
        <beam number="1">end</beam>
        <lyric number="1">
          <syllabic>middle</syllabic>
          <text>go</text>
          </lyric>
        </note>
      <note default-x="173.95" default-y="-50.00">
        <pitch>
          <step>C</step>
          <octave>5</octave>
          </pitch>
        <duration>1</duration>
        <voice>1</voice>
        <type>eighth</type>
        <stem>up</stem>
        <beam number="1">begin</beam>
        <lyric number="1">
          <syllabic>end</syllabic>
          <text>ra</text>
          </lyric>
        </note>
      <note default-x="216.25" default-y="-45.00">
        <pitch>
          <step>D</step>
          <octave>5</octave>
          </pitch>
        <duration>1</duration>
        <voice>1</voice>
        <type>eighth</type>
        <stem>up</stem>
        <beam number="1">end</beam>
        <lyric number="1">
          <syllabic>begin</syllabic>
          <text>co</text>
          </lyric>
        </note>
      <note default-x="258.55" default-y="-40.00">
        <pitch>
          <step>E</step>
          <octave>5</octave>
          </pitch>
        <duration>1</duration>
        <voice>1</voice>
        <type>eighth</type>
        <stem>up</stem>
        <beam number="1">begin</beam>
        <lyric number="1">
          <syllabic>middle</syllabic>
          <text>me</text>
          </lyric>
        </note>
      <note default-x="300.85" default-y="-35.00">
        <pitch>
          <step>F</step>
          <octave>5</octave>
          </pitch>
        <duration>1</duration>
        <voice>1</voice>
        <type>eighth</type>
        <stem>up</stem>
        <beam number="1">end</beam>
        <lyric number="1">
          <syllabic>end</syllabic>
          <text>zo</text>
          </lyric>
        </note>
      </measure>
    <measure number="2" width="208.67">
      <note default-x="16.97" default-y="-30.00">
        <pitch>
          <step>G</step>
          <octave>5</octave>
          </pitch>
        <duration>2</duration>
        <voice>1</voice>
        <type>quarter</type>
        <stem>up</stem>
        <lyric number="1">
          <syllabic>begin</syllabic>
          <text>eu</text>
          </lyric>
        </note>
      <note default-x="75.46" default-y="-30.00">
        <pitch>
          <step>G</step>
          <octave>5</octave>
          </pitch>
        <duration>2</duration>
        <voice>1</voice>
        <type>quarter</type>
        <stem>up</stem>
        <lyric number="1">
          <syllabic>end</syllabic>
          <text>e</text>
          </lyric>
        </note>
      <note default-x="133.95" default-y="-45.00">
        <pitch>
          <step>D</step>
          <octave>5</octave>
          </pitch>
        <duration>1</duration>
        <voice>1</voice>
        <type>eighth</type>
        <stem>up</stem>
        <beam number="1">begin</beam>
        <lyric number="1">
          <syllabic>begin</syllabic>
          <text>co</text>
          </lyric>
        </note>
      <note default-x="170.51" default-y="-40.00">
        <pitch>
          <step>E</step>
          <octave>5</octave>
          </pitch>
        <duration>1</duration>
        <voice>1</voice>
        <type>eighth</type>
        <stem>up</stem>
        <beam number="1">end</beam>
        <lyric number="1">
          <syllabic>middle</syllabic>
          <text>me</text>
          </lyric>
        </note>
      </measure>
    <measure number="3" width="221.22">
      <note default-x="16.22" default-y="-35.00">
        <pitch>
          <step>F</step>
          <octave>5</octave>
          </pitch>
        <duration>2</duration>
        <voice>1</voice>
        <type>quarter</type>
        <stem>up</stem>
        <lyric number="1">
          <syllabic>end</syllabic>
          <text>zo</text>
          </lyric>
        </note>
      <note default-x="78.80" default-y="-30.00">
        <pitch>
          <step>G</step>
          <octave>5</octave>
          </pitch>
        <duration>2</duration>
        <voice>1</voice>
        <type>quarter</type>
        <stem>up</stem>
        <lyric number="1">
          <syllabic>single</syllabic>
          <text>por</text>
          </lyric>
        </note>
      <note default-x="141.39" default-y="-35.00">
        <pitch>
          <step>F</step>
          <octave>5</octave>
          </pitch>
        <duration>1</duration>
        <voice>1</voice>
        <type>eighth</type>
        <stem>up</stem>
        <beam number="1">begin</beam>
        <lyric number="1">
          <syllabic>begin</syllabic>
          <text>co</text>
          </lyric>
        </note>
      <note default-x="180.50" default-y="-40.00">
        <pitch>
          <step>E</step>
          <octave>5</octave>
          </pitch>
        <duration>1</duration>
        <voice>1</voice>
        <type>eighth</type>
        <stem>up</stem>
        <beam number="1">end</beam>
        <lyric number="1">
          <syllabic>middle</syllabic>
          <text>me</text>
          </lyric>
        </note>
      </measure>
    <measure number="4" width="176.27">
      <note default-x="15.60" default-y="-45.00">
        <pitch>
          <step>D</step>
          <octave>5</octave>
          </pitch>
        <duration>2</duration>
        <voice>1</voice>
        <type>quarter</type>
        <stem>up</stem>
        <lyric number="1">
          <syllabic>middle</syllabic>
          <text>za</text>
          </lyric>
        </note>
      <note default-x="64.12" default-y="-50.00">
        <pitch>
          <step>C</step>
          <octave>5</octave>
          </pitch>
        <duration>4</duration>
        <voice>1</voice>
        <type>half</type>
        <stem>up</stem>
        <lyric number="1">
          <syllabic>end</syllabic>
          <text>re</text>
          </lyric>
        </note>
      <barline location="right">
        <bar-style>light-heavy</bar-style>
        <repeat direction="backward"/>
        </barline>
      </measure>
    <measure number="5" width="318.83">
      <print new-system="yes">
        <system-layout>
          <system-margins>
            <left-margin>0.00</left-margin>
            <right-margin>0.00</right-margin>
            </system-margins>
          <system-distance>152.03</system-distance>
          </system-layout>
        </print>
      <barline location="left">
        <bar-style>heavy-light</bar-style>
        <repeat direction="forward"/>
        </barline>
      <note default-x="67.75" default-y="-35.00">
        <pitch>
          <step>F</step>
          <octave>5</octave>
          </pitch>
        <duration>1</duration>
        <voice>1</voice>
        <type>eighth</type>
        <stem>up</stem>
        <beam number="1">begin</beam>
        <lyric number="1">
          <syllabic>single</syllabic>
          <text>o</text>
          </lyric>
        </note>
      <note default-x="109.33" default-y="-40.00">
        <pitch>
          <step>E</step>
          <octave>5</octave>
          </pitch>
        <duration>1</duration>
        <voice>1</voice>
        <type>eighth</type>
        <stem>up</stem>
        <beam number="1">end</beam>
        <lyric number="1">
          <syllabic>single</syllabic>
          <text>que</text>
          </lyric>
        </note>
      <note default-x="150.91" default-y="-45.00">
        <pitch>
          <step>D</step>
          <octave>5</octave>
          </pitch>
        <duration>1</duration>
        <voice>1</voice>
        <type>eighth</type>
        <stem>up</stem>
        <beam number="1">begin</beam>
        <lyric number="1">
          <syllabic>begin</syllabic>
          <text>pri</text>
          </lyric>
        </note>
      <note default-x="192.49" default-y="-35.00">
        <pitch>
          <step>F</step>
          <octave>5</octave>
          </pitch>
        <duration>1</duration>
        <voice>1</voice>
        <type>eighth</type>
        <stem>up</stem>
        <beam number="1">end</beam>
        <lyric number="1">
          <syllabic>middle</syllabic>
          <text>mei</text>
          </lyric>
        </note>
      <note default-x="234.07" default-y="-40.00">
        <pitch>
          <step>E</step>
          <octave>5</octave>
          </pitch>
        <duration>1</duration>
        <voice>1</voice>
        <type>eighth</type>
        <stem>up</stem>
        <beam number="1">begin</beam>
        <lyric number="1">
          <syllabic>end</syllabic>
          <text>ro</text>
          </lyric>
        </note>
      <note default-x="275.65" default-y="-45.00">
        <pitch>
          <step>D</step>
          <octave>5</octave>
          </pitch>
        <duration>1</duration>
        <voice>1</voice>
        <type>eighth</type>
        <stem>up</stem>
        <beam number="1">end</beam>
        <lyric number="1">
          <syllabic>begin</syllabic>
          <text>co</text>
          </lyric>
        </note>
      </measure>
    <measure number="6" width="203.46">
      <note default-x="19.28" default-y="-40.00">
        <pitch>
          <step>E</step>
          <octave>5</octave>
          </pitch>
        <duration>2</duration>
        <voice>1</voice>
        <type>quarter</type>
        <stem>up</stem>
        <lyric number="1">
          <syllabic>middle</syllabic>
          <text>me</text>
          </lyric>
        </note>
      <note default-x="74.67" default-y="-40.00">
        <pitch>
          <step>E</step>
          <octave>5</octave>
          </pitch>
        <duration>2</duration>
        <voice>1</voice>
        <type>quarter</type>
        <stem>up</stem>
        <lyric number="1">
          <syllabic>end</syllabic>
          <text>za</text>
          </lyric>
        </note>
      <note default-x="130.07" default-y="-45.00">
        <pitch>
          <step>D</step>
          <octave>5</octave>
          </pitch>
        <duration>1</duration>
        <voice>1</voice>
        <type>eighth</type>
        <stem>up</stem>
        <beam number="1">begin</beam>
        <lyric number="1">
          <syllabic>begin</syllabic>
          <text>pri</text>
          </lyric>
        </note>
      <note default-x="167.24" default-y="-50.00">
        <pitch>
          <step>C</step>
          <octave>5</octave>
          </pitch>
        <duration>1</duration>
        <voice>1</voice>
        <type>eighth</type>
        <stem>up</stem>
        <beam number="1">end</beam>
        <lyric number="1">
          <syllabic>middle</syllabic>
          <text>mei</text>
          </lyric>
        </note>
      </measure>
    <measure number="7" width="185.31">
      <note default-x="15.00" default-y="-45.00">
        <pitch>
          <step>D</step>
          <octave>5</octave>
          </pitch>
        <duration>2</duration>
        <voice>1</voice>
        <type>quarter</type>
        <stem>up</stem>
        <lyric number="1">
          <syllabic>end</syllabic>
          <text>ro</text>
          </lyric>
        </note>
      <note default-x="66.91" default-y="-45.00">
        <pitch>
          <step>D</step>
          <octave>5</octave>
          </pitch>
        <duration>2</duration>
        <voice>1</voice>
        <type>quarter</type>
        <stem>up</stem>
        <lyric number="1">
          <syllabic>single</syllabic>
          <text>ha</text>
          </lyric>
        </note>
      <note default-x="118.82" default-y="-50.00">
        <pitch>
          <step>C</step>
          <octave>5</octave>
          </pitch>
        <duration>1</duration>
        <voice>1</voice>
        <type>eighth</type>
        <stem>up</stem>
        <beam number="1">begin</beam>
        <lyric number="1">
          <syllabic>begin</syllabic>
          <text>d&apos;a</text>
          </lyric>
        </note>
      <note default-x="151.26" default-y="-55.00">
        <pitch>
          <step>B</step>
          <octave>4</octave>
          </pitch>
        <duration>1</duration>
        <voice>1</voice>
        <type>eighth</type>
        <stem>up</stem>
        <beam number="1">end</beam>
        <lyric number="1">
          <syllabic>middle</syllabic>
          <text>ca</text>
          </lyric>
        </note>
      </measure>
    <measure number="8" width="165.08">
      <note default-x="16.22" default-y="-45.00">
        <pitch>
          <step>D</step>
          <octave>5</octave>
          </pitch>
        <duration>2</duration>
        <voice>1</voice>
        <type>quarter</type>
        <stem>up</stem>
        <lyric number="1">
          <syllabic>middle</syllabic>
          <text>ba</text>
          </lyric>
        </note>
      <note default-x="56.77" default-y="-50.00">
        <pitch>
          <step>C</step>
          <octave>5</octave>
          </pitch>
        <duration>4</duration>
        <voice>1</voice>
        <type>half</type>
        <stem>up</stem>
        <lyric number="1">
          <syllabic>end</syllabic>
          <text>re</text>
          </lyric>
        </note>
      <barline location="right">
        <bar-style>light-heavy</bar-style>
        <repeat direction="backward"/>
        </barline>
      </measure>
    <measure number="9" width="204.41">
      <barline location="left">
        <bar-style>heavy-light</bar-style>
        <repeat direction="forward"/>
        </barline>
      <note default-x="16.84" default-y="-40.00">
        <pitch>
          <step>E</step>
          <octave>5</octave>
          </pitch>
        <duration>2</duration>
        <voice>1</voice>
        <type>quarter</type>
        <stem>up</stem>
        <lyric number="1">
          <syllabic>single</syllabic>
          <text>Ai</text>
          </lyric>
        </note>
      <note default-x="69.98" default-y="-40.00">
        <pitch>
          <step>E</step>
          <octave>5</octave>
          </pitch>
        <duration>1</duration>
        <voice>1</voice>
        <type>eighth</type>
        <stem>up</stem>
        <beam number="1">begin</beam>
        <lyric number="1">
          <syllabic>begin</syllabic>
          <text>la</text>
          </lyric>
        </note>
      <note default-x="103.18" default-y="-35.00">
        <pitch>
          <step>F</step>
          <octave>5</octave>
          </pitch>
        <duration>1</duration>
        <voice>1</voice>
        <type>eighth</type>
        <stem>up</stem>
        <beam number="1">end</beam>
        <lyric number="1">
          <syllabic>middle</syllabic>
          <text>la</text>
          </lyric>
        </note>
      <note default-x="136.39" default-y="-30.00">
        <pitch>
          <step>G</step>
          <octave>5</octave>
          </pitch>
        <duration>1</duration>
        <voice>1</voice>
        <type>eighth</type>
        <stem>up</stem>
        <beam number="1">begin</beam>
        <lyric number="1">
          <syllabic>middle</syllabic>
          <text>la</text>
          </lyric>
        </note>
      <note default-x="169.60" default-y="-35.00">
        <pitch>
          <step>F</step>
          <octave>5</octave>
          </pitch>
        <duration>1</duration>
        <voice>1</voice>
        <type>eighth</type>
        <stem>up</stem>
        <beam number="1">end</beam>
        <lyric number="1">
          <syllabic>end</syllabic>
          <text>la</text>
          </lyric>
        </note>
      </measure>
    <measure number="10" width="229.30">
      <print new-system="yes">
        <system-layout>
          <system-margins>
            <left-margin>0.00</left-margin>
            <right-margin>0.00</right-margin>
            </system-margins>
          <system-distance>152.03</system-distance>
          </system-layout>
        </print>
      <note default-x="63.32" default-y="-40.00">
        <pitch>
          <step>E</step>
          <octave>5</octave>
          </pitch>
        <duration>2</duration>
        <voice>1</voice>
        <type>quarter</type>
        <stem>up</stem>
        <lyric number="1">
          <syllabic>single</syllabic>
          <text>ai</text>
          </lyric>
        </note>
      <note default-x="110.29" default-y="-40.00">
        <pitch>
          <step>E</step>
          <octave>5</octave>
          </pitch>
        <duration>1</duration>
        <voice>1</voice>
        <type>eighth</type>
        <stem>up</stem>
        <beam number="1">begin</beam>
        <lyric number="1">
          <syllabic>begin</syllabic>
          <text>la</text>
          </lyric>
        </note>
      <note default-x="139.64" default-y="-35.00">
        <pitch>
          <step>F</step>
          <octave>5</octave>
          </pitch>
        <duration>1</duration>
        <voice>1</voice>
        <type>eighth</type>
        <stem>up</stem>
        <beam number="1">end</beam>
        <lyric number="1">
          <syllabic>middle</syllabic>
          <text>la</text>
          </lyric>
        </note>
      <note default-x="168.99" default-y="-30.00">
        <pitch>
          <step>G</step>
          <octave>5</octave>
          </pitch>
        <duration>1</duration>
        <voice>1</voice>
        <type>eighth</type>
        <stem>up</stem>
        <beam number="1">begin</beam>
        <lyric number="1">
          <syllabic>middle</syllabic>
          <text>la</text>
          </lyric>
        </note>
      <note default-x="198.34" default-y="-35.00">
        <pitch>
          <step>F</step>
          <octave>5</octave>
          </pitch>
        <duration>1</duration>
        <voice>1</voice>
        <type>eighth</type>
        <stem>up</stem>
        <beam number="1">end</beam>
        <lyric number="1">
          <syllabic>end</syllabic>
          <text>la</text>
          </lyric>
        </note>
      </measure>
    <measure number="11" width="179.75">
      <note default-x="13.77" default-y="-40.00">
        <pitch>
          <step>E</step>
          <octave>5</octave>
          </pitch>
        <duration>2</duration>
        <voice>1</voice>
        <type>quarter</type>
        <stem>up</stem>
        <lyric number="1">
          <syllabic>single</syllabic>
          <text>ai</text>
          </lyric>
        </note>
      <note default-x="60.74" default-y="-40.00">
        <pitch>
          <step>E</step>
          <octave>5</octave>
          </pitch>
        <duration>1</duration>
        <voice>1</voice>
        <type>eighth</type>
        <stem>up</stem>
        <beam number="1">begin</beam>
        <lyric number="1">
          <syllabic>begin</syllabic>
          <text>la</text>
          </lyric>
        </note>
      <note default-x="90.09" default-y="-45.00">
        <pitch>
          <step>D</step>
          <octave>5</octave>
          </pitch>
        <duration>1</duration>
        <voice>1</voice>
        <type>eighth</type>
        <stem>up</stem>
        <beam number="1">end</beam>
        <lyric number="1">
          <syllabic>middle</syllabic>
          <text>la</text>
          </lyric>
        </note>
      <note default-x="119.44" default-y="-50.00">
        <pitch>
          <step>C</step>
          <octave>5</octave>
          </pitch>
        <duration>1</duration>
        <voice>1</voice>
        <type>eighth</type>
        <stem>up</stem>
        <beam number="1">begin</beam>
        <lyric number="1">
          <syllabic>end</syllabic>
          <text>la</text>
          </lyric>
        </note>
      <note default-x="148.79" default-y="-45.00">
        <pitch>
          <step>D</step>
          <octave>5</octave>
          </pitch>
        <duration>1</duration>
        <voice>1</voice>
        <type>eighth</type>
        <stem>up</stem>
        <beam number="1">end</beam>
        <lyric number="1">
          <syllabic>single</syllabic>
          <text>la</text>
          </lyric>
        </note>
      </measure>
    <measure number="12" width="114.91">
      <note default-x="13.77" default-y="-40.00">
        <pitch>
          <step>E</step>
          <octave>5</octave>
          </pitch>
        <duration>2</duration>
        <voice>1</voice>
        <type>quarter</type>
        <stem>up</stem>
        <lyric number="1">
          <syllabic>begin</syllabic>
          <text>la</text>
          </lyric>
        </note>
      <note default-x="46.95" default-y="-45.00">
        <pitch>
          <step>D</step>
          <octave>5</octave>
          </pitch>
        <duration>4</duration>
        <voice>1</voice>
        <type>half</type>
        <stem>up</stem>
        <lyric number="1">
          <syllabic>end</syllabic>
          <text>la</text>
          </lyric>
        </note>
      </measure>
    <measure number="13" width="179.75">
      <note default-x="13.77" default-y="-45.00">
        <pitch>
          <step>D</step>
          <octave>5</octave>
          </pitch>
        <duration>2</duration>
        <voice>1</voice>
        <type>quarter</type>
        <stem>up</stem>
        <lyric number="1">
          <syllabic>single</syllabic>
          <text>ai</text>
          </lyric>
        </note>
      <note default-x="60.74" default-y="-45.00">
        <pitch>
          <step>D</step>
          <octave>5</octave>
          </pitch>
        <duration>1</duration>
        <voice>1</voice>
        <type>eighth</type>
        <stem>up</stem>
        <beam number="1">begin</beam>
        <lyric number="1">
          <syllabic>begin</syllabic>
          <text>la</text>
          </lyric>
        </note>
      <note default-x="90.09" default-y="-40.00">
        <pitch>
          <step>E</step>
          <octave>5</octave>
          </pitch>
        <duration>1</duration>
        <voice>1</voice>
        <type>eighth</type>
        <stem>up</stem>
        <beam number="1">end</beam>
        <lyric number="1">
          <syllabic>middle</syllabic>
          <text>la</text>
          </lyric>
        </note>
      <note default-x="119.44" default-y="-35.00">
        <pitch>
          <step>F</step>
          <octave>5</octave>
          </pitch>
        <duration>1</duration>
        <voice>1</voice>
        <type>eighth</type>
        <stem>up</stem>
        <beam number="1">begin</beam>
        <lyric number="1">
          <syllabic>middle</syllabic>
          <text>la</text>
          </lyric>
        </note>
      <note default-x="148.79" default-y="-40.00">
        <pitch>
          <step>E</step>
          <octave>5</octave>
          </pitch>
        <duration>1</duration>
        <voice>1</voice>
        <type>eighth</type>
        <stem>up</stem>
        <beam number="1">end</beam>
        <lyric number="1">
          <syllabic>end</syllabic>
          <text>la</text>
          </lyric>
        </note>
      </measure>
    <measure number="14" width="179.75">
      <note default-x="13.77" default-y="-45.00">
        <pitch>
          <step>D</step>
          <octave>5</octave>
          </pitch>
        <duration>2</duration>
        <voice>1</voice>
        <type>quarter</type>
        <stem>up</stem>
        <lyric number="1">
          <syllabic>single</syllabic>
          <text>ai</text>
          </lyric>
        </note>
      <note default-x="60.74" default-y="-45.00">
        <pitch>
          <step>D</step>
          <octave>5</octave>
          </pitch>
        <duration>1</duration>
        <voice>1</voice>
        <type>eighth</type>
        <stem>up</stem>
        <beam number="1">begin</beam>
        <lyric number="1">
          <syllabic>begin</syllabic>
          <text>la</text>
          </lyric>
        </note>
      <note default-x="90.09" default-y="-40.00">
        <pitch>
          <step>E</step>
          <octave>5</octave>
          </pitch>
        <duration>1</duration>
        <voice>1</voice>
        <type>eighth</type>
        <stem>up</stem>
        <beam number="1">end</beam>
        <lyric number="1">
          <syllabic>middle</syllabic>
          <text>la</text>
          </lyric>
        </note>
      <note default-x="119.44" default-y="-35.00">
        <pitch>
          <step>F</step>
          <octave>5</octave>
          </pitch>
        <duration>1</duration>
        <voice>1</voice>
        <type>eighth</type>
        <stem>up</stem>
        <beam number="1">begin</beam>
        <lyric number="1">
          <syllabic>middle</syllabic>
          <text>la</text>
          </lyric>
        </note>
      <note default-x="148.79" default-y="-40.00">
        <pitch>
          <step>E</step>
          <octave>5</octave>
          </pitch>
        <duration>1</duration>
        <voice>1</voice>
        <type>eighth</type>
        <stem>up</stem>
        <beam number="1">end</beam>
        <lyric number="1">
          <syllabic>end</syllabic>
          <text>la</text>
          </lyric>
        </note>
      </measure>
    <measure number="15" width="193.65">
      <note default-x="27.67" default-y="-45.00">
        <pitch>
          <step>D</step>
          <octave>5</octave>
          </pitch>
        <duration>2</duration>
        <voice>1</voice>
        <type>quarter</type>
        <stem>up</stem>
        <lyric number="1">
          <syllabic>single</syllabic>
          <text>ai</text>
          </lyric>
        </note>
      <note default-x="74.64" default-y="-45.00">
        <pitch>
          <step>D</step>
          <octave>5</octave>
          </pitch>
        <duration>1</duration>
        <voice>1</voice>
        <type>eighth</type>
        <stem>up</stem>
        <beam number="1">begin</beam>
        <lyric number="1">
          <syllabic>begin</syllabic>
          <text>la</text>
          </lyric>
        </note>
      <note default-x="103.99" default-y="-50.00">
        <pitch>
          <step>C</step>
          <octave>5</octave>
          </pitch>
        <duration>1</duration>
        <voice>1</voice>
        <type>eighth</type>
        <stem>up</stem>
        <beam number="1">end</beam>
        <lyric number="1">
          <syllabic>middle</syllabic>
          <text>la</text>
          </lyric>
        </note>
      <note default-x="133.34" default-y="-55.00">
        <pitch>
          <step>B</step>
          <octave>4</octave>
          </pitch>
        <duration>1</duration>
        <voice>1</voice>
        <type>eighth</type>
        <stem>up</stem>
        <beam number="1">begin</beam>
        <lyric number="1">
          <syllabic>middle</syllabic>
          <text>la</text>
          </lyric>
        </note>
      <note default-x="162.69" default-y="-50.00">
        <pitch>
          <step>C</step>
          <octave>5</octave>
          </pitch>
        <duration>1</duration>
        <voice>1</voice>
        <type>eighth</type>
        <stem>up</stem>
        <beam number="1">end</beam>
        <lyric number="1">
          <syllabic>end</syllabic>
          <text>la</text>
          </lyric>
        </note>
      </measure>
    <measure number="16" width="400.19">
      <print new-system="yes">
        <system-layout>
          <system-margins>
            <left-margin>0.00</left-margin>
            <right-margin>0.00</right-margin>
            </system-margins>
          <system-distance>152.03</system-distance>
          </system-layout>
        </print>
      <note default-x="63.32" default-y="-45.00">
        <pitch>
          <step>D</step>
          <octave>5</octave>
          </pitch>
        <duration>2</duration>
        <voice>1</voice>
        <type>quarter</type>
        <stem>up</stem>
        <lyric number="1">
          <syllabic>begin</syllabic>
          <text>la</text>
          </lyric>
        </note>
      <note default-x="166.55" default-y="-50.00">
        <pitch>
          <step>C</step>
          <octave>5</octave>
          </pitch>
        <duration>4</duration>
        <voice>1</voice>
        <type>half</type>
        <stem>up</stem>
        <lyric number="1">
          <syllabic>end</syllabic>
          <text>la</text>
          </lyric>
        </note>
      <barline location="right">
        <bar-style>light-heavy</bar-style>
        <repeat direction="backward"/>
        </barline>
      </measure>
    <measure number="17" width="338.36">
      <barline location="left">
        <bar-style>heavy-light</bar-style>
        <repeat direction="forward"/>
        </barline>
      <note default-x="16.84" default-y="-45.00">
        <pitch>
          <step>D</step>
          <octave>5</octave>
          </pitch>
        <duration>2</duration>
        <voice>1</voice>
        <type>quarter</type>
        <stem>up</stem>
        <lyric number="1">
          <syllabic>single</syllabic>
          <text>Ai</text>
          </lyric>
        </note>
      <note default-x="123.48" default-y="-50.00">
        <pitch>
          <step>C</step>
          <octave>5</octave>
          </pitch>
        <duration>2</duration>
        <voice>1</voice>
        <type>quarter</type>
        <stem>up</stem>
        <lyric number="1">
          <syllabic>single</syllabic>
          <text>la</text>
          </lyric>
        </note>
      <note default-x="230.12" default-y="-55.00">
        <pitch>
          <step>B</step>
          <octave>4</octave>
          </pitch>
        <duration>2</duration>
        <voice>1</voice>
        <type>quarter</type>
        <stem>up</stem>
        <lyric number="1">
          <syllabic>single</syllabic>
          <text>la</text>
          </lyric>
        </note>
      </measure>
    <measure number="18" width="338.54">
      <note default-x="13.77" default-y="-45.00">
        <pitch>
          <step>D</step>
          <octave>5</octave>
          </pitch>
        <duration>2</duration>
        <voice>1</voice>
        <type>quarter</type>
        <stem>up</stem>
        <lyric number="1">
          <syllabic>single</syllabic>
          <text>la</text>
          </lyric>
        </note>
      <note default-x="116.99" default-y="-50.00">
        <pitch>
          <step>C</step>
          <octave>5</octave>
          </pitch>
        <duration>4</duration>
        <voice>1</voice>
        <type>half</type>
        <stem>up</stem>
        <lyric number="1">
          <syllabic>single</syllabic>
          <text>la</text>
          </lyric>
        </note>
      <barline location="right">
        <bar-style>light-heavy</bar-style>
        <repeat direction="backward"/>
        </barline>
      </measure>
    </part>
  <part id="P2">
    <measure number="1" width="344.75">
      <print>
        <staff-layout number="1">
          <staff-distance>107.00</staff-distance>
          </staff-layout>
        </print>
      <attributes>
        <divisions>2</divisions>
        <key>
          <fifths>0</fifths>
          <mode>major</mode>
          </key>
        <time>
          <beats>3</beats>
          <beat-type>4</beat-type>
          </time>
        <clef>
          <sign>percussion</sign>
          <line>2</line>
          </clef>
        <staff-details>
          <staff-lines>1</staff-lines>
          </staff-details>
        </attributes>
      <note default-x="89.34" default-y="-167.00">
        <unpitched>
          <display-step>B</display-step>
          <display-octave>4</display-octave>
          </unpitched>
        <duration>2</duration>
        <instrument id="P2-I64"/>
        <voice>1</voice>
        <type>quarter</type>
        <stem>down</stem>
        <notehead>x</notehead>
        </note>
      <note default-x="173.95" default-y="-167.00">
        <unpitched>
          <display-step>B</display-step>
          <display-octave>4</display-octave>
          </unpitched>
        <duration>2</duration>
        <instrument id="P2-I64"/>
        <voice>1</voice>
        <type>quarter</type>
        <stem>down</stem>
        <notehead>x</notehead>
        </note>
      <note default-x="258.55" default-y="-157.00">
        <unpitched>
          <display-step>D</display-step>
          <display-octave>5</display-octave>
          </unpitched>
        <duration>2</duration>
        <instrument id="P2-I46"/>
        <voice>1</voice>
        <type>quarter</type>
        <stem>down</stem>
        </note>
      </measure>
    <measure number="2" width="208.67">
      <note default-x="16.97" default-y="-167.00">
        <unpitched>
          <display-step>B</display-step>
          <display-octave>4</display-octave>
          </unpitched>
        <duration>2</duration>
        <instrument id="P2-I64"/>
        <voice>1</voice>
        <type>quarter</type>
        <stem>down</stem>
        <notehead>x</notehead>
        </note>
      <note default-x="75.46" default-y="-167.00">
        <unpitched>
          <display-step>B</display-step>
          <display-octave>4</display-octave>
          </unpitched>
        <duration>2</duration>
        <instrument id="P2-I64"/>
        <voice>1</voice>
        <type>quarter</type>
        <stem>down</stem>
        <notehead>x</notehead>
        </note>
      <note default-x="133.95" default-y="-157.00">
        <unpitched>
          <display-step>D</display-step>
          <display-octave>5</display-octave>
          </unpitched>
        <duration>2</duration>
        <instrument id="P2-I46"/>
        <voice>1</voice>
        <type>quarter</type>
        <stem>down</stem>
        </note>
      </measure>
    <measure number="3" width="221.22">
      <note default-x="16.22" default-y="-167.00">
        <unpitched>
          <display-step>B</display-step>
          <display-octave>4</display-octave>
          </unpitched>
        <duration>2</duration>
        <instrument id="P2-I64"/>
        <voice>1</voice>
        <type>quarter</type>
        <stem>down</stem>
        <notehead>x</notehead>
        </note>
      <note default-x="78.80" default-y="-167.00">
        <unpitched>
          <display-step>B</display-step>
          <display-octave>4</display-octave>
          </unpitched>
        <duration>2</duration>
        <instrument id="P2-I64"/>
        <voice>1</voice>
        <type>quarter</type>
        <stem>down</stem>
        <notehead>x</notehead>
        </note>
      <note default-x="141.39" default-y="-157.00">
        <unpitched>
          <display-step>D</display-step>
          <display-octave>5</display-octave>
          </unpitched>
        <duration>2</duration>
        <instrument id="P2-I46"/>
        <voice>1</voice>
        <type>quarter</type>
        <stem>down</stem>
        </note>
      </measure>
    <measure number="4" width="176.27">
      <note default-x="15.60" default-y="-167.00">
        <unpitched>
          <display-step>B</display-step>
          <display-octave>4</display-octave>
          </unpitched>
        <duration>2</duration>
        <instrument id="P2-I64"/>
        <voice>1</voice>
        <type>quarter</type>
        <stem>down</stem>
        <notehead>x</notehead>
        </note>
      <note default-x="64.12" default-y="-167.00">
        <unpitched>
          <display-step>B</display-step>
          <display-octave>4</display-octave>
          </unpitched>
        <duration>2</duration>
        <instrument id="P2-I64"/>
        <voice>1</voice>
        <type>quarter</type>
        <stem>down</stem>
        <notehead>x</notehead>
        </note>
      <note default-x="112.64" default-y="-157.00">
        <unpitched>
          <display-step>D</display-step>
          <display-octave>5</display-octave>
          </unpitched>
        <duration>2</duration>
        <instrument id="P2-I46"/>
        <voice>1</voice>
        <type>quarter</type>
        <stem>down</stem>
        </note>
      <barline location="right">
        <bar-style>light-heavy</bar-style>
        <repeat direction="backward"/>
        </barline>
      </measure>
    <measure number="5" width="318.83">
      <print new-system="yes">
        <staff-layout number="1">
          <staff-distance>107.00</staff-distance>
          </staff-layout>
        </print>
      <barline location="left">
        <bar-style>heavy-light</bar-style>
        <repeat direction="forward"/>
        </barline>
      <note default-x="67.75" default-y="-167.00">
        <unpitched>
          <display-step>B</display-step>
          <display-octave>4</display-octave>
          </unpitched>
        <duration>2</duration>
        <instrument id="P2-I64"/>
        <voice>1</voice>
        <type>quarter</type>
        <stem>down</stem>
        <notehead>x</notehead>
        </note>
      <note default-x="150.91" default-y="-167.00">
        <unpitched>
          <display-step>B</display-step>
          <display-octave>4</display-octave>
          </unpitched>
        <duration>2</duration>
        <instrument id="P2-I64"/>
        <voice>1</voice>
        <type>quarter</type>
        <stem>down</stem>
        <notehead>x</notehead>
        </note>
      <note default-x="234.07" default-y="-157.00">
        <unpitched>
          <display-step>D</display-step>
          <display-octave>5</display-octave>
          </unpitched>
        <duration>2</duration>
        <instrument id="P2-I46"/>
        <voice>1</voice>
        <type>quarter</type>
        <stem>down</stem>
        </note>
      </measure>
    <measure number="6" width="203.46">
      <note default-x="19.28" default-y="-167.00">
        <unpitched>
          <display-step>B</display-step>
          <display-octave>4</display-octave>
          </unpitched>
        <duration>2</duration>
        <instrument id="P2-I64"/>
        <voice>1</voice>
        <type>quarter</type>
        <stem>down</stem>
        <notehead>x</notehead>
        </note>
      <note default-x="74.67" default-y="-167.00">
        <unpitched>
          <display-step>B</display-step>
          <display-octave>4</display-octave>
          </unpitched>
        <duration>2</duration>
        <instrument id="P2-I64"/>
        <voice>1</voice>
        <type>quarter</type>
        <stem>down</stem>
        <notehead>x</notehead>
        </note>
      <note default-x="130.07" default-y="-157.00">
        <unpitched>
          <display-step>D</display-step>
          <display-octave>5</display-octave>
          </unpitched>
        <duration>2</duration>
        <instrument id="P2-I46"/>
        <voice>1</voice>
        <type>quarter</type>
        <stem>down</stem>
        </note>
      </measure>
    <measure number="7" width="185.31">
      <note default-x="15.00" default-y="-167.00">
        <unpitched>
          <display-step>B</display-step>
          <display-octave>4</display-octave>
          </unpitched>
        <duration>2</duration>
        <instrument id="P2-I64"/>
        <voice>1</voice>
        <type>quarter</type>
        <stem>down</stem>
        <notehead>x</notehead>
        </note>
      <note default-x="66.91" default-y="-167.00">
        <unpitched>
          <display-step>B</display-step>
          <display-octave>4</display-octave>
          </unpitched>
        <duration>2</duration>
        <instrument id="P2-I64"/>
        <voice>1</voice>
        <type>quarter</type>
        <stem>down</stem>
        <notehead>x</notehead>
        </note>
      <note default-x="118.82" default-y="-157.00">
        <unpitched>
          <display-step>D</display-step>
          <display-octave>5</display-octave>
          </unpitched>
        <duration>2</duration>
        <instrument id="P2-I46"/>
        <voice>1</voice>
        <type>quarter</type>
        <stem>down</stem>
        </note>
      </measure>
    <measure number="8" width="165.08">
      <note default-x="16.22" default-y="-167.00">
        <unpitched>
          <display-step>B</display-step>
          <display-octave>4</display-octave>
          </unpitched>
        <duration>2</duration>
        <instrument id="P2-I64"/>
        <voice>1</voice>
        <type>quarter</type>
        <stem>down</stem>
        <notehead>x</notehead>
        </note>
      <note default-x="56.77" default-y="-167.00">
        <unpitched>
          <display-step>B</display-step>
          <display-octave>4</display-octave>
          </unpitched>
        <duration>2</duration>
        <instrument id="P2-I64"/>
        <voice>1</voice>
        <type>quarter</type>
        <stem>down</stem>
        <notehead>x</notehead>
        </note>
      <note default-x="97.33" default-y="-157.00">
        <unpitched>
          <display-step>D</display-step>
          <display-octave>5</display-octave>
          </unpitched>
        <duration>2</duration>
        <instrument id="P2-I46"/>
        <voice>1</voice>
        <type>quarter</type>
        <stem>down</stem>
        </note>
      <barline location="right">
        <bar-style>light-heavy</bar-style>
        <repeat direction="backward"/>
        </barline>
      </measure>
    <measure number="9" width="204.41">
      <barline location="left">
        <bar-style>heavy-light</bar-style>
        <repeat direction="forward"/>
        </barline>
      <note default-x="16.84" default-y="-167.00">
        <unpitched>
          <display-step>B</display-step>
          <display-octave>4</display-octave>
          </unpitched>
        <duration>2</duration>
        <instrument id="P2-I64"/>
        <voice>1</voice>
        <type>quarter</type>
        <stem>down</stem>
        <notehead>x</notehead>
        </note>
      <note default-x="69.98" default-y="-167.00">
        <unpitched>
          <display-step>B</display-step>
          <display-octave>4</display-octave>
          </unpitched>
        <duration>2</duration>
        <instrument id="P2-I64"/>
        <voice>1</voice>
        <type>quarter</type>
        <stem>down</stem>
        <notehead>x</notehead>
        </note>
      <note default-x="136.39" default-y="-157.00">
        <unpitched>
          <display-step>D</display-step>
          <display-octave>5</display-octave>
          </unpitched>
        <duration>2</duration>
        <instrument id="P2-I46"/>
        <voice>1</voice>
        <type>quarter</type>
        <stem>down</stem>
        </note>
      </measure>
    <measure number="10" width="229.30">
      <print new-system="yes">
        <staff-layout number="1">
          <staff-distance>107.00</staff-distance>
          </staff-layout>
        </print>
      <note default-x="63.32" default-y="-167.00">
        <unpitched>
          <display-step>B</display-step>
          <display-octave>4</display-octave>
          </unpitched>
        <duration>2</duration>
        <instrument id="P2-I64"/>
        <voice>1</voice>
        <type>quarter</type>
        <stem>down</stem>
        <notehead>x</notehead>
        </note>
      <note default-x="110.29" default-y="-167.00">
        <unpitched>
          <display-step>B</display-step>
          <display-octave>4</display-octave>
          </unpitched>
        <duration>2</duration>
        <instrument id="P2-I64"/>
        <voice>1</voice>
        <type>quarter</type>
        <stem>down</stem>
        <notehead>x</notehead>
        </note>
      <note default-x="168.99" default-y="-157.00">
        <unpitched>
          <display-step>D</display-step>
          <display-octave>5</display-octave>
          </unpitched>
        <duration>2</duration>
        <instrument id="P2-I46"/>
        <voice>1</voice>
        <type>quarter</type>
        <stem>down</stem>
        </note>
      </measure>
    <measure number="11" width="179.75">
      <note default-x="13.77" default-y="-167.00">
        <unpitched>
          <display-step>B</display-step>
          <display-octave>4</display-octave>
          </unpitched>
        <duration>2</duration>
        <instrument id="P2-I64"/>
        <voice>1</voice>
        <type>quarter</type>
        <stem>down</stem>
        <notehead>x</notehead>
        </note>
      <note default-x="60.74" default-y="-167.00">
        <unpitched>
          <display-step>B</display-step>
          <display-octave>4</display-octave>
          </unpitched>
        <duration>2</duration>
        <instrument id="P2-I64"/>
        <voice>1</voice>
        <type>quarter</type>
        <stem>down</stem>
        <notehead>x</notehead>
        </note>
      <note default-x="119.44" default-y="-157.00">
        <unpitched>
          <display-step>D</display-step>
          <display-octave>5</display-octave>
          </unpitched>
        <duration>2</duration>
        <instrument id="P2-I46"/>
        <voice>1</voice>
        <type>quarter</type>
        <stem>down</stem>
        </note>
      </measure>
    <measure number="12" width="114.91">
      <note default-x="13.77" default-y="-167.00">
        <unpitched>
          <display-step>B</display-step>
          <display-octave>4</display-octave>
          </unpitched>
        <duration>2</duration>
        <instrument id="P2-I64"/>
        <voice>1</voice>
        <type>quarter</type>
        <stem>down</stem>
        <notehead>x</notehead>
        </note>
      <note default-x="46.95" default-y="-167.00">
        <unpitched>
          <display-step>B</display-step>
          <display-octave>4</display-octave>
          </unpitched>
        <duration>2</duration>
        <instrument id="P2-I64"/>
        <voice>1</voice>
        <type>quarter</type>
        <stem>down</stem>
        <notehead>x</notehead>
        </note>
      <note default-x="80.13" default-y="-157.00">
        <unpitched>
          <display-step>D</display-step>
          <display-octave>5</display-octave>
          </unpitched>
        <duration>2</duration>
        <instrument id="P2-I46"/>
        <voice>1</voice>
        <type>quarter</type>
        <stem>down</stem>
        </note>
      </measure>
    <measure number="13" width="179.75">
      <note default-x="13.77" default-y="-167.00">
        <unpitched>
          <display-step>B</display-step>
          <display-octave>4</display-octave>
          </unpitched>
        <duration>2</duration>
        <instrument id="P2-I64"/>
        <voice>1</voice>
        <type>quarter</type>
        <stem>down</stem>
        <notehead>x</notehead>
        </note>
      <note default-x="60.74" default-y="-167.00">
        <unpitched>
          <display-step>B</display-step>
          <display-octave>4</display-octave>
          </unpitched>
        <duration>2</duration>
        <instrument id="P2-I64"/>
        <voice>1</voice>
        <type>quarter</type>
        <stem>down</stem>
        <notehead>x</notehead>
        </note>
      <note default-x="119.44" default-y="-157.00">
        <unpitched>
          <display-step>D</display-step>
          <display-octave>5</display-octave>
          </unpitched>
        <duration>2</duration>
        <instrument id="P2-I46"/>
        <voice>1</voice>
        <type>quarter</type>
        <stem>down</stem>
        </note>
      </measure>
    <measure number="14" width="179.75">
      <note default-x="13.77" default-y="-167.00">
        <unpitched>
          <display-step>B</display-step>
          <display-octave>4</display-octave>
          </unpitched>
        <duration>2</duration>
        <instrument id="P2-I64"/>
        <voice>1</voice>
        <type>quarter</type>
        <stem>down</stem>
        <notehead>x</notehead>
        </note>
      <note default-x="60.74" default-y="-167.00">
        <unpitched>
          <display-step>B</display-step>
          <display-octave>4</display-octave>
          </unpitched>
        <duration>2</duration>
        <instrument id="P2-I64"/>
        <voice>1</voice>
        <type>quarter</type>
        <stem>down</stem>
        <notehead>x</notehead>
        </note>
      <note default-x="119.44" default-y="-157.00">
        <unpitched>
          <display-step>D</display-step>
          <display-octave>5</display-octave>
          </unpitched>
        <duration>2</duration>
        <instrument id="P2-I46"/>
        <voice>1</voice>
        <type>quarter</type>
        <stem>down</stem>
        </note>
      </measure>
    <measure number="15" width="193.65">
      <note default-x="27.67" default-y="-167.00">
        <unpitched>
          <display-step>B</display-step>
          <display-octave>4</display-octave>
          </unpitched>
        <duration>2</duration>
        <instrument id="P2-I64"/>
        <voice>1</voice>
        <type>quarter</type>
        <stem>down</stem>
        <notehead>x</notehead>
        </note>
      <note default-x="74.64" default-y="-167.00">
        <unpitched>
          <display-step>B</display-step>
          <display-octave>4</display-octave>
          </unpitched>
        <duration>2</duration>
        <instrument id="P2-I64"/>
        <voice>1</voice>
        <type>quarter</type>
        <stem>down</stem>
        <notehead>x</notehead>
        </note>
      <note default-x="133.34" default-y="-157.00">
        <unpitched>
          <display-step>D</display-step>
          <display-octave>5</display-octave>
          </unpitched>
        <duration>2</duration>
        <instrument id="P2-I46"/>
        <voice>1</voice>
        <type>quarter</type>
        <stem>down</stem>
        </note>
      </measure>
    <measure number="16" width="400.19">
      <print new-system="yes">
        <staff-layout number="1">
          <staff-distance>107.00</staff-distance>
          </staff-layout>
        </print>
      <note default-x="63.32" default-y="-167.00">
        <unpitched>
          <display-step>B</display-step>
          <display-octave>4</display-octave>
          </unpitched>
        <duration>2</duration>
        <instrument id="P2-I64"/>
        <voice>1</voice>
        <type>quarter</type>
        <stem>down</stem>
        <notehead>x</notehead>
        </note>
      <note default-x="166.55" default-y="-167.00">
        <unpitched>
          <display-step>B</display-step>
          <display-octave>4</display-octave>
          </unpitched>
        <duration>2</duration>
        <instrument id="P2-I64"/>
        <voice>1</voice>
        <type>quarter</type>
        <stem>down</stem>
        <notehead>x</notehead>
        </note>
      <note default-x="269.77" default-y="-157.00">
        <unpitched>
          <display-step>D</display-step>
          <display-octave>5</display-octave>
          </unpitched>
        <duration>2</duration>
        <instrument id="P2-I46"/>
        <voice>1</voice>
        <type>quarter</type>
        <stem>down</stem>
        </note>
      <barline location="right">
        <bar-style>light-heavy</bar-style>
        <repeat direction="backward"/>
        </barline>
      </measure>
    <measure number="17" width="338.36">
      <barline location="left">
        <bar-style>heavy-light</bar-style>
        <repeat direction="forward"/>
        </barline>
      <note default-x="16.84" default-y="-167.00">
        <unpitched>
          <display-step>B</display-step>
          <display-octave>4</display-octave>
          </unpitched>
        <duration>2</duration>
        <instrument id="P2-I64"/>
        <voice>1</voice>
        <type>quarter</type>
        <stem>down</stem>
        <notehead>x</notehead>
        </note>
      <note default-x="123.48" default-y="-167.00">
        <unpitched>
          <display-step>B</display-step>
          <display-octave>4</display-octave>
          </unpitched>
        <duration>2</duration>
        <instrument id="P2-I64"/>
        <voice>1</voice>
        <type>quarter</type>
        <stem>down</stem>
        <notehead>x</notehead>
        </note>
      <note default-x="230.12" default-y="-167.00">
        <unpitched>
          <display-step>B</display-step>
          <display-octave>4</display-octave>
          </unpitched>
        <duration>2</duration>
        <instrument id="P2-I64"/>
        <voice>1</voice>
        <type>quarter</type>
        <stem>down</stem>
        <notehead>x</notehead>
        </note>
      </measure>
    <measure number="18" width="338.54">
      <note default-x="13.77" default-y="-167.00">
        <unpitched>
          <display-step>B</display-step>
          <display-octave>4</display-octave>
          </unpitched>
        <duration>2</duration>
        <instrument id="P2-I64"/>
        <voice>1</voice>
        <type>quarter</type>
        <stem>down</stem>
        <notehead>x</notehead>
        </note>
      <note default-x="116.99" default-y="-167.00">
        <unpitched>
          <display-step>B</display-step>
          <display-octave>4</display-octave>
          </unpitched>
        <duration>2</duration>
        <instrument id="P2-I64"/>
        <voice>1</voice>
        <type>quarter</type>
        <stem>down</stem>
        <notehead>x</notehead>
        </note>
      <note default-x="220.22" default-y="-157.00">
        <unpitched>
          <display-step>D</display-step>
          <display-octave>5</display-octave>
          </unpitched>
        <duration>2</duration>
        <instrument id="P2-I46"/>
        <voice>1</voice>
        <type>quarter</type>
        <stem>down</stem>
        </note>
      <barline location="right">
        <bar-style>light-heavy</bar-style>
        <repeat direction="backward"/>
        </barline>
      </measure>
    </part>
  </score-partwise>
